
<svg width="692" height="335" viewBox="0 0 692 335" fill="none" xmlns="http://www.w3.org/2000/svg">
<path d="M512.388 215.209V218.183C512.388 219.225 512.725 220.075 513.137 220.075H621.652C622.064 220.075 622.4 219.225 622.4 218.183V215.209C622.4 214.17 622.064 213.318 621.652 213.318H513.137C512.725 213.318 512.388 214.17 512.388 215.209Z" fill="#84E882"/>
<path d="M512.388 215.209V218.183C512.388 219.225 512.696 220.075 513.075 220.075H599.225C599.601 220.075 599.912 219.225 599.912 218.183V215.209C599.912 214.17 599.601 213.318 599.225 213.318H513.075C512.696 213.318 512.388 214.17 512.388 215.209Z" fill="#BBF9C1"/>
<path d="M539.852 332.365H616.893V220.075H539.852V332.365Z" fill="#95F193"/>
<path d="M518.263 332.365H595.304V220.075H518.263V332.365Z" fill="#29CD61"/>
<path d="M590.419 223.989H523.145V325.423H590.419V223.989ZM522.401 223.248H591.163V326.166H522.401V223.248Z" fill="#95F193"/>
<path d="M522.773 258.037H590.791V257.294H522.773V258.037Z" fill="#95F193"/>
<path d="M522.773 292.746H590.791V292.002H522.773V292.746Z" fill="#95F193"/>
<path d="M549.813 229.885H562.435C563.046 229.885 563.548 229.385 563.548 228.772C563.548 228.159 563.046 227.657 562.435 227.657H549.813C549.2 227.657 548.7 228.159 548.7 228.772C548.7 229.385 549.2 229.885 549.813 229.885Z" fill="#95F193"/>
<path d="M549.813 263.826H562.435C563.046 263.826 563.548 263.327 563.548 262.713C563.548 262.1 563.046 261.601 562.435 261.601H549.813C549.2 261.601 548.7 262.1 548.7 262.713C548.7 263.327 549.2 263.826 549.813 263.826Z" fill="#95F193"/>
<path d="M549.813 299.21H562.435C563.046 299.21 563.548 298.708 563.548 298.097C563.548 297.484 563.046 296.982 562.435 296.982H549.813C549.2 296.982 548.7 297.484 548.7 298.097C548.7 298.708 549.2 299.21 549.813 299.21Z" fill="#95F193"/>
<path d="M404.948 53.1002H358.644C356.52 53.1002 354.78 51.3599 354.78 49.236V4.54506C354.78 2.4212 356.52 0.680908 358.644 0.680908H404.948C407.071 0.680908 408.812 2.4212 408.812 4.54506V49.236C408.812 51.3599 407.071 53.1002 404.948 53.1002Z" fill="#5CCE6E"/>
<path d="M402.94 50.8296H360.65C358.711 50.8296 357.122 49.2409 357.122 47.2993V6.48198C357.122 4.54043 358.711 2.95167 360.65 2.95167H402.94C404.881 2.95167 406.47 4.54043 406.47 6.48198V47.2993C406.47 49.2409 404.881 50.8296 402.94 50.8296Z" fill="#DFFDED"/>
<path d="M380.676 7.73683C380.676 7.11885 381.178 6.6169 381.796 6.6169C382.414 6.6169 382.916 7.11885 382.916 7.73683C382.916 8.35481 382.414 8.85677 381.796 8.85677C381.178 8.85677 380.676 8.35481 380.676 7.73683Z" fill="#B7F3D3"/>
<path d="M389.709 9.31846C390.007 8.77862 390.689 8.58445 391.229 8.88279C391.771 9.18349 391.965 9.86542 391.665 10.4053C391.364 10.9451 390.682 11.1416 390.142 10.8409C389.602 10.5402 389.408 9.8583 389.709 9.31846Z" fill="#B7F3D3"/>
<path d="M397.444 15.465C397.965 15.1311 398.657 15.2803 398.993 15.7989C399.327 16.3174 399.177 17.0111 398.659 17.3473C398.138 17.6812 397.447 17.532 397.11 17.0135C396.777 16.4926 396.926 15.8012 397.444 15.465Z" fill="#B7F3D3"/>
<path d="M401.278 24.9786C401.896 24.9786 402.398 25.4806 402.398 26.0985C402.398 26.7165 401.896 27.2185 401.278 27.2185C400.66 27.2185 400.158 26.7165 400.158 26.0985C400.158 25.4806 400.66 24.9786 401.278 24.9786Z" fill="#B7F3D3"/>
<path d="M399.322 36.0217C399.758 36.4574 399.758 37.1677 399.322 37.6033C398.884 38.0414 398.176 38.0414 397.738 37.6033C397.3 37.1677 397.3 36.4574 397.738 36.0217C398.176 35.5837 398.884 35.5837 399.322 36.0217Z" fill="#B7F3D3"/>
<path d="M392.292 43.0681C392.73 43.5038 392.73 44.2141 392.292 44.6498C391.856 45.0878 391.146 45.0878 390.71 44.6498C390.272 44.2141 390.272 43.5038 390.71 43.0681C391.146 42.6301 391.856 42.6301 392.292 43.0681Z" fill="#B7F3D3"/>
<path d="M380.676 46.7002C380.676 46.0823 381.178 45.5803 381.796 45.5803C382.414 45.5803 382.916 46.0823 382.916 46.7002C382.916 47.3182 382.414 47.8202 381.796 47.8202C381.178 47.8202 380.676 47.3182 380.676 46.7002Z" fill="#B7F3D3"/>
<path d="M373.847 9.31846C373.549 8.77862 372.867 8.58445 372.327 8.88279C371.785 9.18349 371.591 9.86542 371.892 10.4053C372.192 10.9451 372.874 11.1416 373.414 10.8409C373.954 10.5402 374.148 9.8583 373.847 9.31846Z" fill="#B7F3D3"/>
<path d="M366.112 15.465C365.591 15.1311 364.9 15.2803 364.564 15.7989C364.23 16.3174 364.379 17.0111 364.897 17.3473C365.416 17.6812 366.11 17.532 366.446 17.0135C366.78 16.4926 366.631 15.8012 366.112 15.465Z" fill="#B7F3D3"/>
<path d="M362.279 24.9786C361.661 24.9786 361.159 25.4806 361.159 26.0985C361.159 26.7165 361.661 27.2185 362.279 27.2185C362.897 27.2185 363.399 26.7165 363.399 26.0985C363.399 25.4806 362.897 24.9786 362.279 24.9786Z" fill="#B7F3D3"/>
<path d="M364.234 36.0217C363.799 36.4574 363.799 37.1677 364.234 37.6033C364.672 38.0414 365.38 38.0414 365.818 37.6033C366.254 37.1677 366.254 36.4574 365.818 36.0217C365.38 35.5837 364.672 35.5837 364.234 36.0217Z" fill="#B7F3D3"/>
<path d="M371.264 43.0681C370.826 43.5038 370.826 44.2141 371.264 44.6498C371.7 45.0878 372.41 45.0878 372.846 44.6498C373.284 44.2141 373.284 43.5038 372.846 43.0681C372.41 42.6301 371.7 42.6301 371.264 43.0681Z" fill="#B7F3D3"/>
<path d="M381.493 26.0985C381.493 25.4806 381.995 24.9786 382.613 24.9786C383.231 24.9786 383.733 25.4806 383.733 26.0985C383.733 26.7165 383.231 27.2185 382.613 27.2185C381.995 27.2185 381.493 26.7165 381.493 26.0985Z" fill="#B7F3D3"/>
<path d="M382.767 26.0985H382.461V12.1171H382.767V26.0985Z" fill="#B7F3D3"/>
<path d="M382.755 26.4394L382.189 25.7173L389.602 19.8998L390.168 20.6196L382.755 26.4394Z" fill="#B7F3D3"/>
<path d="M375.057 199.085H207.263V121.883C207.263 109.073 217.646 98.691 230.455 98.691H375.057V199.085Z" fill="#29CD61"/>
<path d="M370.08 194.752H211.314V116.896C211.314 109.478 217.326 103.467 224.744 103.467H370.08V194.752Z" fill="#82DF8B"/>
<path d="M404.207 316.513H206.394V199.085H404.207V316.513Z" fill="#29CD61"/>
<path d="M398.337 311.444H211.17V204.673H398.337V311.444Z" fill="#84E882"/>
<path d="M251.125 332.583H244.86L246.134 316.513H254.869L251.125 332.583Z" fill="#84E882"/>
<path d="M361.5 332.583H367.765L366.491 316.513H357.756L361.5 332.583Z" fill="#84E882"/>
<path d="M355.284 243.563C357.195 244.546 360.358 245.434 361.476 247.953C361.871 248.846 361.658 251.973 360.318 251.791C359.579 251.692 359.366 250.702 359.326 249.831C359.284 248.966 358.756 248.202 357.972 247.839L349.247 244.011L350.888 240.634C350.888 240.634 354.446 243.132 355.284 243.563Z" fill="#ED7D2B"/>
<path d="M268.784 303.372H321.618C321.618 304.004 331.124 303.372 331.124 303.372C331.124 303.372 330.454 300.121 328.87 299.207C328.512 298.999 325.872 299.629 325.226 299.603C325.498 299.43 331.091 297.697 329.838 289.144L332.822 302.934C332.864 303.187 333.082 303.372 333.338 303.372H345.037C345.288 303.372 345.503 303.195 345.551 302.946C345.726 302.015 346.015 299.806 345.094 298.682C344.367 297.796 342.077 297.997 340.415 298.284C340.041 298.348 339.7 298.417 339.413 298.48C339.03 298.563 338.694 298.211 338.796 297.829C338.796 297.829 339.664 295.277 341.248 291.728C342.832 288.176 345.129 283.63 347.987 279.645C348.558 278.847 349.152 278.073 349.768 277.332C351.977 274.673 353.475 268.285 351.541 265.462C351.288 265.093 350.146 263.874 350.556 264.056C351.401 264.428 352.007 265.041 352.424 265.614C352.718 266.014 353.352 265.818 353.369 265.32C353.603 258.657 348.57 252.965 346.597 250.06C345.953 249.113 345.634 248.462 345.929 248.171C347.199 246.909 352.805 250.108 355.339 250.018C356.84 249.966 357.977 249.438 358.656 249.016C358.81 248.921 358.89 248.767 358.902 248.611C358.917 248.415 358.822 248.209 358.621 248.107C357.164 247.352 354.965 246.423 353.227 245.169C352.353 244.539 351.569 243.431 351.115 242.467C350.769 241.735 350.888 240.843 350.888 240.843C352.853 242.519 355.443 243.902 357.657 244.657C359.134 245.159 360.441 245.384 361.287 245.232C363.467 244.844 364.838 242.841 365.612 241.214C365.949 240.504 366.171 239.865 366.297 239.462C366.377 239.209 366.252 238.937 366.013 238.83C365.657 238.669 365.096 238.416 364.407 238.098C361.216 236.633 357.676 235.468 357.044 234.455C356.826 234.106 356.627 233.721 356.428 233.309C356.428 233.309 356.428 233.306 356.426 233.304C355.479 231.327 354.56 228.725 351.908 226.622C347.788 223.357 343.588 222.734 341.833 222.621C341.296 222.585 340.988 222.599 340.986 222.599C338.253 222.49 336.227 222.895 334.716 223.681H334.714C328.858 226.724 330.764 235.477 329.538 242.164C329.49 242.424 329.436 242.68 329.379 242.933C328.875 245.145 322.423 251.138 322.167 254.779C321.679 261.726 316.48 262.375 304.987 269.405C298.343 273.47 297.867 284.482 298.466 292.855C298.615 294.931 297.159 296.78 295.108 297.124C292.315 297.585 289.203 297.782 286.336 297.249C278.475 295.786 276.83 282.439 281.584 280.426C281.584 280.426 273.512 278.049 269.594 284.267C265.675 290.485 265.675 300.353 268.784 303.372Z" fill="#F1A34F"/>
<path d="M339.899 224.527C342.215 224.527 344.192 226.291 344.561 228.691C345.12 232.331 345.674 237.585 344.973 241.198C343.926 246.587 339.276 248.559 336.293 246.963C330.783 244.013 333.3 232.61 334.832 227.29C335.305 225.649 336.747 224.527 338.379 224.527H339.899Z" fill="#ED7D2B"/>
<path d="M365.612 241.214C365.949 240.504 366.171 239.865 366.297 239.462C366.377 239.209 366.252 238.937 366.01 238.828C365.657 238.669 365.096 238.416 364.407 238.101C364.407 238.101 363.96 240.651 365.612 241.214Z" fill="#BC6211"/>
<path d="M268.784 303.372H278.08C267.468 301.191 269.691 293.053 269.691 293.053C270.787 295.066 276.912 295.431 276.912 295.431C276.912 295.431 272.8 291.593 273.164 285.924C273.463 281.319 278.835 280.568 280.838 280.448C281.3 280.422 281.582 280.426 281.582 280.426C281.582 280.426 273.512 278.049 269.594 284.267C265.675 290.482 265.675 300.353 268.784 303.372Z" fill="#FFDABB"/>
<path d="M334.716 223.681C334.716 223.681 329.545 225.045 328.449 229.158C328.449 229.158 329.135 228.49 329.621 228.287C329.621 228.287 328.29 229.425 328.449 232.309C328.605 235.196 330.234 239.787 329.379 242.936L332.628 237.286L334.716 223.681Z" fill="#F1A34F"/>
<path d="M356.428 233.308C356.428 233.308 354.936 229.546 356.428 228.144C356.428 228.144 355.391 227.841 354.872 228.144C354.872 228.144 354.69 225.282 351.034 224.001C347.376 222.72 341.833 222.621 341.833 222.621L351.399 229.731L356.428 233.308Z" fill="#F1A34F"/>
<path d="M338.161 303.372H345.037C345.288 303.372 345.503 303.194 345.551 302.946C345.726 302.015 346.015 299.806 345.094 298.682C344.367 297.796 342.077 297.997 340.415 298.284C338.672 300.178 338.161 303.372 338.161 303.372Z" fill="#FFDABB"/>
<path d="M249.615 311.444C249.615 311.444 249.965 305.174 256.619 301.322C263.274 297.469 287.264 304.824 302.676 302.548C318.085 300.27 370.05 294.029 367.424 311.444H249.615Z" fill="#E85D52"/>
<path d="M307.193 311.444H305.704V202.308H307.193V311.444Z" fill="#ECFFC5"/>
<path d="M338.45 311.444H336.96V202.308H338.45V311.444Z" fill="#ECFFC5"/>
<path d="M369.704 311.444H368.215V202.308H369.704V311.444Z" fill="#ECFFC5"/>
<path d="M275.937 311.444H274.448V202.308H275.937V311.444Z" fill="#ECFFC5"/>
<path d="M244.68 311.444H243.191V202.308H244.68V311.444Z" fill="#ECFFC5"/>
<path d="M261.323 194.752C261.323 194.752 269.35 185.511 287.338 184.701C305.323 183.894 304.819 190.755 317.318 188.437C329.815 186.119 340.642 183.228 349.519 186.382C358.398 189.534 362.762 194.752 362.762 194.752H261.323Z" fill="#F99746"/>
<path d="M59.5795 312.497C59.5795 312.497 55.1812 316.513 56.0392 319.364C56.8975 322.217 60.8668 324.118 61.4031 327.604C61.9394 331.089 64.085 332.99 66.0159 332.99C67.947 332.99 75.2219 332.99 75.2219 332.99C75.2219 332.99 76.6433 330.537 73.2105 329.798C69.7775 329.057 68.4833 324.964 68.6978 321.159C68.9126 317.356 68.3761 312.287 68.3761 312.287L61.0813 310.596L59.5795 312.497Z" fill="#233862"/>
<path d="M96.8067 314.617C96.8067 314.617 95.2245 331.622 97.1554 332.571L121.867 332.521C121.867 332.521 121.867 329.668 117.898 329.034C113.929 328.401 106.956 326.076 105.776 320.9C104.596 315.725 96.8067 314.617 96.8067 314.617Z" fill="#233862"/>
<path d="M116.985 174.653C116.985 174.653 124.11 196.829 124.567 204.38C125.025 211.93 110.948 311.638 110.382 315.119C109.848 318.395 105.776 320.486 105.776 320.486C105.776 320.486 103.903 321.592 101.23 320.837C97.5215 319.79 96.3492 318.535 96.3492 318.535C96.3492 318.535 90.8037 247.425 94.2355 222.022C97.6673 196.621 97.7076 174.653 97.7076 174.653H116.985Z" fill="#ED7D2B"/>
<path d="M86.7994 173.992C86.7994 173.992 75.9315 188.572 74.9183 198.429C73.9052 208.289 73.3289 242.912 71.1704 252.523C69.012 262.131 61.0813 280.625 61.0813 310.596C61.0813 310.596 61.9055 312.315 64.4508 313.229C65.2649 313.523 66.3554 313.807 67.4143 314.048C69.5133 314.531 71.667 313.504 72.625 311.576C77.9867 300.779 95.0659 265.962 95.9414 258.736C96.5611 253.621 101.954 219.77 113.717 199.907C116.541 195.138 111.984 176.173 111.984 176.173L86.7994 173.992Z" fill="#F99746"/>
<path d="M85.2014 68.4621C84.9408 67.8299 81.894 61.1126 71.5505 64.7779C71.5505 64.7779 76.8 63.4165 78.5124 65.3485C78.5124 65.3485 74.0499 63.8853 71.6019 65.8884C69.1539 67.8891 69.3857 73.5622 69.9833 75.222C70.5809 76.8818 74.1067 81.6006 76.0419 81.3568C76.7749 81.2644 77.5286 80.914 78.1828 80.5162C77.9936 81.4586 77.8428 82.4743 77.7483 83.5801C76.8755 93.804 84.2049 100.571 87.308 98.279C89.2981 96.811 91.3687 100.453 91.3687 100.453L106.199 74.0476C106.199 74.0476 92.0549 60.3289 85.2014 68.4621Z" fill="#2C3A64"/>
<path d="M113.022 130.658C98.9755 137.129 88.4159 114.292 89.3329 114.057C90.7372 112.419 92.1853 106.587 91.1563 98.1889L91.8849 98.241L104.1 99.1739C104.1 99.1739 104.29 103.081 104.711 106.722C104.991 109.118 105.373 111.401 105.868 112.395C106.015 112.691 108.661 113.084 108.668 113.091C108.873 113.323 116.769 128.934 113.022 130.658Z" fill="#FFB27D"/>
<path d="M122.979 137.754C123.889 141.187 124.636 144.263 125.003 146.335C126.695 155.886 125.845 204.446 125.845 204.446C101.059 213.898 71.3826 201.73 71.3826 201.73C70.4618 192.676 73.9892 172.541 76.1311 154.624C76.6565 150.232 77.0981 145.979 77.3725 142.051C77.6119 138.628 78.0016 135.585 78.5041 132.881C82.0661 113.733 91.2285 111.631 91.2285 111.631C95.5124 120.204 109.031 122.513 109.031 122.513C109.198 117.687 107.683 111.541 107.683 111.541C109.394 111.751 115.167 112.481 116.727 113.257C121.356 115.566 132.329 134.917 132.329 134.917C132.329 134.917 135.17 133.625 122.979 137.754Z" fill="#F9DDBF"/>
<path d="M104.101 99.1764C104.101 99.1764 104.288 103.078 104.713 106.725C98.0151 107.371 93.743 101.542 91.8851 98.2435L104.101 99.1764Z" fill="#ED985F"/>
<path d="M106.739 102.347C106.739 102.347 90.9797 104.603 89.7665 94.4669C88.5533 84.3306 85.7023 77.7957 95.713 75.9252C105.724 74.0547 108.145 77.6749 109.349 80.9566C110.552 84.2383 110.807 101.497 106.739 102.347Z" fill="#FFB27D"/>
<path d="M108.211 75.3782C105.408 72.6364 103.643 73.5385 102.718 74.585C93.5065 70.7825 88.8023 78.7144 88.8023 78.7144C88.6088 86.1207 84.0133 90.9295 84.0133 90.9295C84.0133 90.9295 87.1089 92.3975 93.5359 89.8048C95.4989 89.0116 97.1325 87.2998 98.457 85.3038C96.322 90.2808 93.0635 94.0857 93.0635 94.0857C100.542 89.31 102.377 77.5471 102.551 76.3064C103.621 77.0783 105.751 78.7759 106.556 80.6038C107.649 83.0852 108.633 88.3558 110.115 87.9841C110.115 87.9841 112.414 79.491 108.211 75.3782Z" fill="#2C3A64"/>
<path d="M91.1627 108.619C91.1627 108.619 89.314 110.184 89.309 112.507C89.309 112.507 92.1927 120.628 109.031 122.513C109.031 122.513 92.9407 114.659 91.1627 108.619Z" fill="#EAC3A2"/>
<path d="M105.466 111.924C105.466 111.924 109.152 118.594 109.031 122.513C109.031 122.513 109.319 113.608 108.718 111.541C108.116 109.474 104.837 107.736 104.837 107.736L105.466 111.924Z" fill="#EAC3A2"/>
<path d="M101.782 97.0264C101.926 97.0264 103.273 98.2671 105.053 97.9214C106.834 97.5733 106.817 96.1338 106.817 96.1338C106.817 96.1338 105.602 95.9372 104.534 96.1338C103.466 96.3327 101.782 97.0264 101.782 97.0264Z" fill="white"/>
<path d="M137.137 132.493C137.137 132.493 139.799 127.951 138.385 124.019C137.868 122.579 137.093 121.061 136.319 119.714C135.494 118.279 135.023 118.608 134.369 120.133C133.859 121.319 132.746 122.605 132.514 123.462C131.798 126.116 131.035 127.899 132.884 130.326C134.732 132.756 137.137 132.493 137.137 132.493Z" fill="#223D75"/>
<path d="M142.365 172.962C142.365 172.962 152.948 162.018 140.541 152.119C137.508 149.699 127.33 139.492 133.475 137.498C136.603 136.482 138.108 134.394 138.83 132.585C138.93 132.332 139.018 132.085 139.091 131.846C139.09 131.844 139.09 131.844 139.09 131.844C139.521 130.442 139.499 129.36 139.499 129.36C139.499 129.36 139.807 127.082 136.643 124.606C135.773 123.926 134.642 123.232 133.171 122.567C133.168 122.565 133.165 122.562 133.161 122.562C132.843 122.416 132.51 122.274 132.158 122.131C128.705 120.744 127.56 122.082 126.101 121.255C124.769 120.498 123.1 119.482 122.821 119.309C122.795 119.295 122.782 119.285 122.782 119.285C122.782 119.285 121.104 117.751 120.303 119.57C120.217 119.764 120.135 119.948 120.059 120.126C119.505 121.4 119.232 122.188 119.463 122.91C119.639 123.457 120.833 124.596 121.803 125.259C122.558 125.778 124.387 126.893 124.473 126.978C124.708 127.213 122.986 127.172 119.025 124.937C118.953 124.897 118.88 124.859 118.808 124.819C118.617 124.71 118.375 124.769 118.251 124.949C118.027 125.278 117.785 125.863 118.103 126.635C118.61 127.869 122.185 129.786 121.134 130.492C120.912 130.643 120.603 130.719 120.237 130.764C120.236 130.762 120.236 130.762 120.236 130.762C118.884 130.923 116.778 130.606 115.493 131.735C115.493 131.735 117.068 131.903 117.913 132.554C117.913 132.554 114.36 131.889 113.43 133.362C113.43 133.362 114.007 133.246 114.695 133.665C114.695 133.665 110.952 134.671 109.258 138.272C109.11 138.587 108.977 138.919 108.864 139.274C107.626 143.159 108.234 140.927 111.946 148.792C114.02 153.184 124.996 164.86 131.386 166.453C139.309 168.43 142.365 172.962 142.365 172.962Z" fill="#2B478B"/>
<path d="M121.535 125.529C121.535 125.529 119.019 124.4 118.724 125.063C118.429 125.723 125.496 128.373 125.657 127.937C125.818 127.499 122.433 125.927 121.535 125.529Z" fill="#E57970"/>
<path d="M136.568 130.369C136.568 130.369 140.018 130.284 141.006 126.427C141.385 124.947 140.716 123.214 140.408 121.691C140.079 120.069 139.529 120.233 138.425 121.471C137.566 122.437 136.103 123.304 135.613 124.042C134.094 126.334 136.568 130.369 136.568 130.369Z" fill="#2B478B"/>
<path d="M119.852 137.309C119.852 137.309 108.355 136.305 105.551 133.276C105.551 133.276 105.688 130.819 105.218 129.969C104.749 129.119 102.731 128.498 101.699 129.031C100.668 129.566 102.971 134.735 103.483 135.244C103.995 135.753 112.314 149.725 116.526 151.553C118.275 152.313 116.311 145.721 118.245 144.291C120.178 142.861 119.852 137.309 119.852 137.309Z" fill="#2B478B"/>
<path d="M126.985 132.711C126.985 132.711 115.558 131.089 112.922 127.911C112.922 127.911 113.19 125.468 112.768 124.592C112.345 123.718 110.363 122.989 109.305 123.467C108.246 123.945 110.267 129.23 110.751 129.765C111.234 130.303 118.788 144.703 122.895 146.756C124.601 147.608 122.995 140.919 125.003 139.596C127.01 138.272 126.985 132.711 126.985 132.711Z" fill="#2B478B"/>
<path d="M122.821 119.309C122.275 119.785 121.137 120.583 120.059 120.126C120.135 119.949 120.217 119.764 120.303 119.57C121.104 117.751 122.782 119.286 122.782 119.286C122.782 119.286 122.795 119.295 122.821 119.309Z" fill="#1D3972"/>
<path d="M142.07 161.874C142.07 161.874 145.539 161.936 148.127 161.088C151.294 160.051 152.597 155.566 145.69 152.119C145.69 152.119 148.62 150.433 152.045 153.168C152.045 153.168 152.307 152.299 152.008 151.413C152.008 151.413 156.81 153.954 156.068 158.396C156.068 158.396 158.125 156.809 158.345 155.543C158.345 155.543 161.875 160.306 157.685 164.294C157.685 164.294 159.031 164.419 160.227 163.366C160.227 163.366 155.234 171.897 143.307 166.299L142.07 161.874Z" fill="#2B478B"/>
<path d="M135.982 124.679C135.982 124.679 136.278 124.234 137.155 123.614C138.033 122.993 138.805 121.556 138.969 121.686C139.133 121.817 138.831 126.206 137.158 126.602C137.158 126.602 136.017 126.382 135.982 124.679Z" fill="#223D75"/>
<path d="M120.904 170.895C123.585 169.886 135.637 175.855 141.021 172.702C143.842 171.049 144.974 165.572 145.411 160.735C145.871 155.652 140.701 151.911 136.021 153.944C133.539 155.024 130.845 156.79 128.286 159.653C124.297 164.116 120.521 164.907 117.62 164.943C116.856 164.242 115.795 163.527 114.67 163.579C112.5 163.681 112.189 165.729 112.189 165.729C111.254 168.684 118.222 171.904 120.904 170.895Z" fill="#2B478B"/>
<path d="M88.1943 131.039C83.1986 128.813 79.6541 133.407 80.5861 138.796C83.1726 153.75 89.3221 175.211 94.3594 176.741C101.924 179.035 129.127 161.616 129.127 161.616L125.333 157.091C125.333 157.091 102.732 163.995 102.323 162.92C101.913 161.845 93.6373 133.463 93.6373 133.463L88.1943 131.039Z" fill="#FFB27D"/>
<path d="M90.4493 119.593C90.4493 119.593 83.7543 122.146 81.4176 125.641C79.0806 129.135 78.7939 140.292 82.4118 154.797C82.4118 154.797 96.2316 150.419 103.363 142.996C103.363 142.996 97.804 117.496 90.4493 119.593Z" fill="#F9DDBF"/>
<path d="M125.333 157.091C125.333 157.091 126.217 155.505 126.646 153.767C127.074 152.029 128.404 149.988 128.506 148.373C128.608 146.761 129.58 147.833 129.938 148.856C130.296 149.879 129.529 153.052 130.245 152.59C130.961 152.131 132.616 148.181 132.922 147.009C133.276 145.657 137.139 148.115 137.169 150.992C137.2 153.869 135.103 157.193 134.029 158.062C132.955 158.931 129.127 161.616 129.127 161.616L125.333 157.091Z" fill="#FFB27D"/>
<path d="M143.537 168.319C143.537 168.319 141.731 168.141 140.058 167.502C138.386 166.863 135.952 166.792 134.568 165.954C133.184 165.118 133.512 166.529 134.148 167.405C134.784 168.283 137.826 169.463 137.039 169.787C136.253 170.114 132.874 169.526 131.696 168.774C129.265 167.22 130.057 173.057 131.777 174.565C133.181 175.796 138.049 176.402 139.375 176.016C140.702 175.63 145.091 174.018 145.091 174.018L143.537 168.319Z" fill="#FFB27D"/>
<path d="M143.537 168.319L145.557 167.864C145.557 167.864 148.696 170.888 145.091 174.018L143.537 168.319Z" fill="#FFB27D"/>
<path d="M691.223 334.385H1.46461C1.03771 334.385 0.688232 334.034 0.688232 333.608V333.36C0.688232 332.933 1.03771 332.583 1.46461 332.583H691.223C691.65 332.583 692 332.933 692 333.36V333.608C692 334.034 691.65 334.385 691.223 334.385Z" fill="#2E3552"/>
<path d="M381.128 194.466H490.049V105.512H381.128V194.466ZM492.85 196.564H378.325V103.415H492.85V196.564Z" fill="#29CD61"/>
<path d="M436.074 195.42H435.151V103.467H436.074V195.42Z" fill="#29CD61"/>
<path d="M455.423 195.42H454.502V103.467H455.423V195.42Z" fill="#29CD61"/>
<path d="M474.774 195.42H473.851V103.467H474.774V195.42Z" fill="#29CD61"/>
<path d="M416.722 195.42H415.799V103.467H416.722V195.42Z" fill="#29CD61"/>
<path d="M397.371 195.42H396.45V103.467H397.371V195.42Z" fill="#29CD61"/>
<path d="M456.455 85.9644C451.758 83.528 447.993 85.0599 447.993 85.0599C433.621 83.3717 429.428 100.135 429.622 105.903C429.814 111.669 430.474 117.865 424.055 125.359C405.514 147.002 444.347 147.956 444.347 147.956C444.676 130.665 465.405 136.975 464.496 138.727C491.072 145.103 467.139 91.5072 456.455 85.9644Z" fill="#163560"/>
<path d="M401.929 159.094C401.929 159.094 398.934 154.536 396.521 154.446C394.108 154.356 389.638 153.106 389.995 153.999C390.353 154.894 393.126 154.984 393.393 155.519C393.661 156.056 389.28 156.861 388.03 156.949C386.778 157.039 383.827 156.949 383.917 157.574C384.007 158.202 389.235 160.794 392.922 160.437C396.611 160.079 401.169 161.509 401.169 161.509L401.929 159.094Z" fill="#FFB27D"/>
<path d="M437.566 159.305C437.566 159.305 436.192 162.025 433.699 165.151C430.697 168.913 426.066 173.26 420.25 174.117C417.473 174.527 414.757 173.93 412.259 172.82C412.252 172.818 412.25 172.818 412.25 172.818C405.189 169.683 399.878 162.473 399.878 162.473C398.633 159.078 400.669 156.776 400.669 156.776C400.669 156.776 414.93 159.984 416.289 159.305C417.646 158.625 425.568 135.803 427.455 132.933C429.343 130.066 435.771 128.576 435.771 128.576L437.566 159.305Z" fill="#AFC9FB"/>
<path d="M433.699 165.151C430.697 168.913 426.066 173.26 420.25 174.117C417.473 174.527 414.757 173.93 412.259 172.82C412.536 172.855 419.59 173.727 422.4 168.698C425.268 163.567 428.369 155.417 432.629 158.135C434.469 159.307 434.386 162.22 433.699 165.151Z" fill="#87AFE8"/>
<path d="M490.769 313.238C490.769 313.238 495.12 317.209 494.273 320.031C493.423 322.854 489.495 324.734 488.964 328.183C488.434 331.631 486.312 333.513 484.402 333.513C482.491 333.513 475.293 333.513 475.293 333.513C475.293 333.513 473.887 331.086 477.284 330.355C480.68 329.623 481.961 325.569 481.747 321.807C481.537 318.045 482.067 313.03 482.067 313.03L489.284 311.358L490.769 313.238Z" fill="#233862"/>
<path d="M453.939 314.924C453.939 314.924 455.506 331.747 453.595 332.687L429.146 332.637C429.146 332.637 429.146 329.817 433.072 329.19C437 328.562 443.899 326.263 445.067 321.142C446.234 316.023 453.939 314.924 453.939 314.924Z" fill="#233862"/>
<path d="M471.363 194.234C466.331 182.949 463.253 179.712 463.84 176.211C464.276 173.604 462.507 127.613 462.507 127.613C461.911 127.428 460.715 127.262 460.059 127.118C457.997 126.659 456.287 125.21 455.577 123.218C454.722 120.82 454.04 117.28 454.057 112.843L453.413 112.968L442.576 115.116C442.576 115.116 442.822 118.525 442.829 121.738C442.829 121.765 442.829 121.791 442.829 121.817C442.843 124.608 441.013 127.071 438.333 127.845C436.964 128.24 435.773 128.576 435.773 128.576C435.773 128.576 431.793 139.937 431.033 151.607C430.273 163.278 438.269 168.347 430.974 191.67C423.525 215.487 474.14 200.468 471.363 194.234Z" fill="#FFB27D"/>
<path d="M442.576 115.116C442.576 115.116 442.822 118.525 442.829 121.739C448.893 121.568 452.099 116.035 453.413 112.968L442.576 115.116Z" fill="#E8945B"/>
<path d="M440.551 118.156C440.551 118.156 454.897 118.393 454.907 109.457C454.916 100.521 456.775 94.5333 447.617 94.0029C438.456 93.4749 436.673 96.8821 435.944 99.8655C435.214 102.846 436.82 117.865 440.551 118.156Z" fill="#FFB27D"/>
<path d="M441.082 93.785C441.082 93.785 445.01 104.269 451.038 105.818C457.066 107.369 459.683 105.754 459.683 105.754C459.683 105.754 455.058 102.082 454.097 95.6674C454.097 95.6674 444.044 88.7938 441.082 93.785Z" fill="#163560"/>
<path d="M442.055 94.6351C442.055 94.6351 439.143 95.7242 437.944 97.8481C436.77 99.9269 435.773 102.678 436.003 106.052C436.003 106.052 433.046 98.9278 436.37 94.8955C439.898 90.6217 442.055 94.6351 442.055 94.6351Z" fill="#163560"/>
<path d="M443.672 112.613C443.672 112.613 442.682 113.915 440.703 113.821C439.107 113.747 438.491 112.362 438.491 112.362C438.491 112.362 441.423 111.657 443.672 112.613Z" fill="#EEFAEB"/>
<path d="M469.407 147.956C469.407 147.956 469.352 154.761 468.99 160.924C468.746 165.011 468.372 168.816 467.785 170.17C466.315 173.566 464.655 174.117 464.655 174.117L451.817 177.264L447.304 178.368L433.072 174.117C433.072 174.117 426.589 156.023 429.191 145.837C431.793 135.651 435.771 128.576 435.771 128.576C435.771 128.576 447.385 139.949 462.51 127.613L469.407 147.956Z" fill="#AFC9FB"/>
<path d="M468.99 160.925C468.746 165.011 468.372 168.816 467.785 170.171C466.315 173.566 464.655 174.118 464.655 174.118L451.817 177.264L446.243 175.626C446.243 175.626 466.144 167.116 464.082 151.103L468.99 160.925Z" fill="#87AFE8"/>
<path d="M433.976 176.864C433.976 176.864 426.927 198.803 426.475 206.274C426.023 213.744 439.948 312.388 440.509 315.829C441.037 319.075 445.067 321.142 445.067 321.142C445.067 321.142 446.918 322.236 449.563 321.49C453.233 320.453 454.393 319.212 454.393 319.212C454.393 319.212 459.879 248.86 456.484 223.729C453.088 198.597 453.048 176.864 453.048 176.864H433.976Z" fill="#ED7D2B"/>
<path d="M463.84 176.21C463.84 176.21 474.592 190.637 475.594 200.387C476.598 210.14 477.166 244.396 479.302 253.903C481.437 263.409 489.284 281.705 489.284 311.358C489.284 311.358 488.467 313.056 485.95 313.963C485.145 314.252 484.065 314.534 483.019 314.773C480.942 315.249 478.811 314.235 477.862 312.327C472.558 301.646 455.662 267.2 454.796 260.05C454.182 254.99 448.848 221.498 437.21 201.848C434.416 197.129 438.925 178.367 438.925 178.367L463.84 176.21Z" fill="#F99746"/>
<path d="M443.352 112.852C443.352 112.852 443.106 113.906 440.485 113.743C440.485 113.743 438.285 113.608 438.354 112.45C438.354 112.45 440.485 111.626 443.352 112.852Z" fill="white"/>
<path d="M432.849 173.478C432.849 173.478 435.681 175.716 441.302 175.829C448.017 175.964 464.652 174.117 464.652 174.117C464.652 174.117 465.394 176.182 465.363 178.363C465.363 178.363 445.043 183.489 433.268 179.111C433.268 179.111 431.75 176.256 432.849 173.478Z" fill="#233862"/>
<path d="M439.689 175.694C438.56 175.694 437.641 176.795 437.641 178.147C437.641 179.499 438.56 180.6 439.689 180.6C440.819 180.6 441.738 179.499 441.738 178.147C441.738 176.795 440.819 175.694 439.689 175.694ZM439.689 181.614C438.001 181.614 436.626 180.058 436.626 178.147C436.626 176.234 438.001 174.679 439.689 174.679C441.38 174.679 442.753 176.234 442.753 178.147C442.753 180.058 441.38 181.614 439.689 181.614Z" fill="white"/>
<path d="M462.327 192.297C462.327 192.297 461.108 195.136 459.569 195.555C458.028 195.976 456.863 197.383 456.301 197.795C455.743 198.209 454.741 198.328 455.018 198.77C455.295 199.211 458.077 198.417 458.454 198.278C458.828 198.136 456.223 200.896 455.371 201.751C454.519 202.606 452.605 203.832 453.072 204.403C453.538 204.974 458.956 204.337 461.191 202.869C463.426 201.401 465.45 195.489 465.45 195.489L462.327 192.297Z" fill="#FFB27D"/>
<path d="M462.51 127.613C462.51 127.613 470.832 128.825 474.045 134.735C477.258 140.645 484.916 167.739 483.268 172.472C481.622 177.207 465.363 197.245 465.363 197.245C465.363 197.245 460.919 196.107 460.919 193.843C460.919 193.843 470.752 170.769 470.588 168.965C470.423 167.161 461.366 153.326 461.695 147.068C462.024 140.811 462.51 127.613 462.51 127.613Z" fill="#AFC9FB"/>
<path d="M378.325 116.271H375.057V108.87H378.325V116.271Z" fill="#163560"/>
<path d="M378.325 184.299H375.057V176.9H378.325V184.299Z" fill="#163560"/>
<path d="M188.018 198.714H375.057V199.085H188.018V198.714Z" fill="#82DF8B"/>
<path d="M292.608 164.957C292.608 164.957 294.924 177.515 306.675 183.707C306.675 183.707 308.818 184.223 309.301 185.371C309.781 186.52 312.464 194.719 313.908 194.702C316.508 194.674 315.566 190.133 314.95 187.744C314.514 186.063 314.377 181.599 313.844 180.944C313.314 180.288 310.286 175.394 311.548 172.472C312.81 169.552 313.117 162.494 305.891 159.961C298.667 157.427 292.608 164.957 292.608 164.957Z" fill="#F2CCAA"/>
<path d="M312.821 189.92C312.821 189.92 309.071 191.044 309.019 192.358C308.967 193.673 309.589 194.752 309.589 194.752L314.268 194.702L312.821 189.92Z" fill="#F2CCAA"/>
<path d="M151.088 311.051C151.088 311.051 146.537 315.27 147.425 318.265C148.313 321.263 152.42 323.261 152.974 326.922C153.529 330.584 155.749 332.583 157.747 332.583C159.745 332.583 167.271 332.583 167.271 332.583C167.271 332.583 168.742 330.004 165.19 329.228C161.639 328.451 160.299 324.149 160.521 320.152C160.743 316.158 160.189 310.83 160.189 310.83L152.641 309.055L151.088 311.051Z" fill="#2C3A64"/>
<path d="M206.913 321.985C206.913 321.985 205.852 331.584 207.85 332.583H233.614C233.614 332.583 233.661 329.533 229.553 328.868C225.447 328.2 218.233 325.759 217.013 320.32C215.792 314.882 206.913 321.985 206.913 321.985Z" fill="#2C3A64"/>
<path d="M228.497 186.406C228.497 186.406 227.15 203.231 225.563 223.454C223.411 250.927 220.821 284.672 220.563 291.065C220.12 302.165 218.342 319.92 218.342 319.92C218.342 319.92 214.127 324.139 205.691 322.361C205.691 322.361 198.173 297.012 196.025 270.193C195.992 269.755 195.958 269.312 195.925 268.869C193.927 241.567 190.821 184.076 190.821 184.076L228.497 186.406Z" fill="#35488B"/>
<path d="M228.497 186.406C228.497 186.406 227.15 203.231 225.563 223.454L196.025 270.193C195.992 269.755 195.958 269.312 195.925 268.869C193.927 241.567 190.821 184.076 190.821 184.076L228.497 186.406Z" fill="#2C3A64"/>
<path d="M222.341 188.404C222.341 188.404 198.034 249.336 182.052 277.969C166.07 306.602 161.076 314.593 161.076 314.593C161.076 314.593 151.92 310.932 151.088 308.434C151.088 308.434 157.199 253.155 167.902 239.68C173.95 232.065 181.053 209.214 181.386 201.223C181.72 193.232 183.551 177.416 183.551 177.416L222.341 188.404Z" fill="#35488B"/>
<path d="M291.273 159.705C291.273 159.705 298.035 159.561 299.105 159.859C300.178 160.16 303.651 162.532 303.637 162.852C303.625 163.169 303.393 163.382 302.725 163.292C302.06 163.2 299.955 162.478 300.038 162.766C300.121 163.058 306.097 165.567 305.908 166.834C305.716 168.101 301.823 169.728 298.909 169.287C295.994 168.849 291.017 164.329 290.541 164.187C286.495 162.977 291.273 159.705 291.273 159.705Z" fill="#FFB27D"/>
<path d="M293.7 161.914C295.234 159.156 295.113 158.642 295.113 158.642C295.113 158.642 271.862 139.089 269.762 137.159C267.659 135.23 246.553 100.862 246.553 100.862L217.276 102.771C217.276 102.771 253.408 144.277 258.825 149.062C267.78 156.968 290.615 165.111 290.615 165.111C290.615 165.111 292.495 164.081 293.7 161.914Z" fill="#ED7D2B"/>
<path d="M233.048 92.4803C233.048 92.4803 242.964 109.93 252.657 112.208C252.657 112.208 252.361 107.92 250.801 104.172C250.301 102.974 250.526 101.596 251.346 100.587C251.736 100.107 252.103 99.6474 252.444 99.2117C254.883 96.0863 256.043 94.1708 256.043 94.1708L252.754 85.3273L250.522 79.3275C249.449 81.2738 248.268 82.9336 247.034 84.3542C240.681 91.6563 233.048 92.4803 233.048 92.4803Z" fill="#FFB27D"/>
<path d="M247.034 84.3543C247.034 84.3543 245.85 93.096 252.444 99.2119C254.883 96.0865 256.043 94.171 256.043 94.171L252.754 85.3275C249.226 84.2525 247.034 84.3543 247.034 84.3543Z" fill="#ED975D"/>
<path d="M258.657 95.4614C258.657 95.4614 243.84 89.6841 247.579 80.5139C251.32 71.3413 251.926 64.418 261.543 67.7186C271.161 71.0192 271.561 75.2622 271.057 78.6291C270.555 81.9937 262.609 96.7281 258.657 95.4614Z" fill="#FFB27D"/>
<path d="M182.114 182.021C188.092 190.616 232.783 202.097 232.252 196.149C232.049 193.874 231.776 189.858 232.257 184.417C232.371 183.141 232.527 181.791 232.733 180.363C233.869 172.548 236.566 162.497 242.58 150.864C243.03 149.993 243.501 149.114 243.987 148.224C246.463 143.72 248.573 138.959 250.185 134.302C253.28 125.354 254.528 116.795 252.965 111.197C252.96 111.169 251.507 105.285 251.497 105.259C242.156 100.938 239.98 90.0462 239.98 90.0462C239.98 90.0462 208.108 95.7667 190.257 138.249C190.257 138.249 176.913 174.541 182.114 182.021Z" fill="#F99746"/>
<path d="M232.257 184.417C232.371 183.141 232.527 181.791 232.733 180.364C233.869 172.548 236.566 162.497 242.58 150.864C241.548 144.604 240.123 139.397 238.558 137.055C232.2 127.528 228.499 126.038 228.499 126.038C228.499 126.038 218.967 166.238 232.257 184.417Z" fill="#ED7D2B"/>
<path d="M245.452 63.4756C245.348 63.2696 245.047 63.0494 244.311 62.8245C244.311 62.8245 245 62.5948 245.803 62.77C246.219 61.7543 247.231 60.0258 249.127 60.014C249.127 60.014 248.04 60.2958 247.638 61.3849C250.238 59.737 255.056 59.2587 267.082 63.2649C282.931 68.545 275.014 77.746 272.61 78.4847C270.209 79.2211 265.786 74.488 261.809 73.8416C257.831 73.1952 255.679 78.7357 254.163 79.195C252.646 79.6544 253.507 78.3947 251.921 77.1304C250.332 75.8684 249.421 78.8399 249.454 80.9258C249.489 83.0118 246.392 84.9889 246.392 84.9889C246.392 84.9889 246.392 84.9889 244.576 81.6575C242.76 78.3261 243.255 66.234 244.991 64.0581C245.142 63.8663 245.296 63.6698 245.452 63.4756Z" fill="#2B478B"/>
<path d="M258.155 89.0827C258.155 89.0827 258.2 90.5697 258.726 91.0527C259.249 91.5333 261.219 92.3644 261.702 92.2342C262.183 92.104 263.189 91.3155 263.189 91.3155C263.189 91.3155 260.258 89.3455 258.155 89.0827Z" fill="white"/>
<path d="M270.285 140.008C270.285 140.008 257.473 143.744 249.582 140.877C249.582 140.877 246.662 136.359 245.059 137.432C243.456 138.507 244.086 142.229 247.119 144.199C250.152 146.169 266.705 150.85 267.787 150.414C268.867 149.976 270.285 140.008 270.285 140.008Z" fill="#F2CCAA"/>
<path d="M266.861 127.989C266.861 127.989 269.44 132.436 268.59 136.769C267.88 140.375 264.309 146.346 266.194 151.146C268.076 155.945 283.331 159.76 287.212 164.026C291.095 168.291 307.267 175.765 310.087 170.502C313.345 164.415 314.493 155.715 301.49 149.555C290.813 144.497 276.375 124.525 276.375 124.525L266.861 127.989Z" fill="#F9DDBF"/>
<path d="M282.247 119.16C282.247 119.16 277.964 116.361 274.557 117.282C271.149 118.201 266.774 112.914 264.657 114.754C262.543 116.593 260.222 121.67 265.178 126.609C270.131 131.548 274.265 134.34 277.838 132.756C281.411 131.169 286.258 120.914 282.247 119.16Z" fill="#F9DDBF"/>
<path d="M276.815 144.821C276.815 144.821 259.732 155.318 258.013 155.557C256.294 155.794 254.042 153.333 252.556 155.348C251.071 157.366 255.799 160.347 257.582 161.059C259.365 161.772 278.359 156.698 278.359 156.698L276.815 144.821Z" fill="#F9DDBF"/>
<path d="M292.059 162.101C292.059 162.101 291.064 174.833 300.829 183.837C300.829 183.837 302.766 184.891 302.938 186.122C303.109 187.356 302.886 194.53 305.666 194.736C308.261 194.928 307.769 192.335 307.785 189.87C307.799 188.132 308.813 183.785 308.47 183.013C308.124 182.244 306.457 176.734 308.427 174.236C310.397 171.738 312.511 164.997 306.18 160.69C299.851 156.383 292.059 162.101 292.059 162.101Z" fill="#F9DDBF"/>
<path d="M306.448 152.498C306.448 152.498 317.566 161.223 323.19 160.83C330.094 160.347 330.376 154.553 330.376 154.553C330.376 154.553 333.236 157.536 331.889 161.933C330.298 167.121 318.954 173.443 310.539 164.003L306.448 152.498Z" fill="#F9DDBF"/>
<path d="M268.76 135.014C268.76 135.014 275.743 137.569 284.309 133.845C284.309 133.845 286.637 135.862 286.435 136.816C286.435 136.816 276.541 141.355 268.227 138.149C268.227 138.149 266.594 136.411 268.76 135.014Z" fill="#35488B"/>
<path d="M278.653 122.832C278.653 122.832 273.572 137.212 279.818 143.069C286.066 148.927 288.017 138.698 286.682 134.598C285.344 130.499 282.694 118.89 278.653 122.832Z" fill="#D39E7A"/>
<path d="M283.211 159.812C283.211 159.812 291.903 158.254 293.344 158.422C294.786 158.59 299.749 160.948 299.797 161.36C299.844 161.775 299.588 162.097 298.712 162.113C297.834 162.132 294.971 161.625 295.139 161.983C295.305 162.34 303.519 164.362 303.53 166.036C303.545 167.708 298.854 170.594 295.007 170.62C291.157 170.646 283.821 165.83 283.177 165.743C277.713 165.004 283.211 159.812 283.211 159.812Z" fill="#FFB27D"/>
<path d="M284.84 163.354C285.01 161.637 283.211 159.812 283.211 159.812C283.211 159.812 257.417 152.716 255.283 150.561C253.147 148.406 243.257 114.105 243.257 114.105C243.257 114.105 239.855 100.22 231.883 98.6909C224.957 97.3603 220.17 100.786 217.037 104.804C213.306 109.592 212.939 116.193 216.038 121.414C222.992 133.132 237.018 156.393 241.115 160.366C250.233 169.209 283.175 167.386 283.175 167.386C283.175 167.386 284.499 166.799 284.84 163.354Z" fill="#F99746"/>
<path d="M304.537 189.936C304.537 189.936 300.774 191.023 300.708 192.335C300.642 193.649 301.253 194.736 301.253 194.736H305.934L304.537 189.936Z" fill="#F9DDBF"/>
<path d="M579.874 123.801L570.504 76.1311L568.049 123.782L567.786 123.768L570.35 73.9931L580.132 123.751L579.874 123.801Z" fill="#29CD61"/>
<path d="M556.8 172.896L556.54 172.874L564.848 75.0609L565.111 75.0656L569.683 172.69L569.42 172.702L564.943 77.0711L556.8 172.896Z" fill="#29CD61"/>
<path d="M580.072 124.627H568.246C567.777 124.627 567.393 124.244 567.393 123.775C567.393 123.306 567.777 122.925 568.246 122.925H580.072C580.539 122.925 580.922 123.306 580.922 123.775C580.922 124.244 580.539 124.627 580.072 124.627Z" fill="#29CD61"/>
<path d="M573.784 77.5943L567.159 77.3481L560.531 77.5943C560.531 73.9338 563.498 70.9671 567.159 70.9671C570.819 70.9671 573.784 73.9338 573.784 77.5943Z" fill="#F99746"/>
<path d="M567.204 58.4489C564.701 58.4489 562.665 60.4851 562.665 62.9878C562.665 65.4882 564.701 67.5244 567.204 67.5244C569.704 67.5244 571.74 65.4882 571.74 62.9878C571.74 60.4851 569.704 58.4489 567.204 58.4489ZM567.204 68.3129C564.266 68.3129 561.876 65.9238 561.876 62.9878C561.876 60.0495 564.266 57.6604 567.204 57.6604C570.14 57.6604 572.529 60.0495 572.529 62.9878C572.529 65.9238 570.14 68.3129 567.204 68.3129Z" fill="#F99746"/>
<path d="M567.516 67.8773H566.889V73.6237H567.516V67.8773Z" fill="#F99746"/>
<path d="M573.244 120.048C573.244 120.048 573.379 122.664 573.244 122.664C573.106 122.664 570.954 122.61 570.518 122.856C570.083 123.1 571.335 124.573 571.745 124.627C571.745 124.627 571.091 123.292 571.473 123.346C571.854 123.401 573.353 123.618 573.544 123.51C573.734 123.401 575.178 121.547 574.525 120.647C573.871 119.75 573.244 120.048 573.244 120.048Z" fill="#F99746"/>
<path d="M563.38 102.444C563.38 102.444 562.452 101.362 563.986 100.483C565.518 99.6025 569.709 99.3989 571.894 100.952C574.082 102.505 573.081 105.593 574.837 106.043C576.597 106.49 580.601 108.413 581.99 112.663C583.38 116.915 595.316 123.801 593.273 123.955C591.229 124.109 587.225 122.212 587.225 122.212C587.225 122.212 588.341 123.59 587.687 123.727C587.034 123.862 582.672 123.019 581.311 121.438C581.311 121.438 582.237 122.392 581.555 122.529C580.875 122.664 574.006 120.839 572.264 119.503C570.519 118.168 565.295 114.543 566.55 110.006C566.55 110.006 565.345 107.132 566.079 106.123C566.813 105.115 566.048 103.779 566.048 103.779L563.38 102.444Z" fill="#B5453C"/>
<path d="M565.123 107.977C565.123 107.977 561.062 105.768 563.38 102.444C563.38 102.444 563.733 101.928 564.715 102.581C565.696 103.235 566.214 103.398 566.048 103.779C565.885 104.16 565.274 104.428 565.376 104.712C565.478 104.999 565.62 105.183 565.274 105.47C564.926 105.756 564.299 106.58 565.123 107.977Z" fill="#F99746"/>
<path d="M564.98 105.882C564.98 105.882 565.662 105.718 565.634 105.392C565.606 105.065 565.648 104.724 565.797 104.409C565.947 104.096 565.935 103.687 566.179 103.701C566.425 103.715 568.236 104.996 567.869 105.773C567.5 106.549 565.362 106.618 564.98 105.882Z" fill="#F99746"/>
<path d="M573.121 117.079C573.121 117.079 572.14 120.716 573.121 121.165C574.101 121.615 575.737 121.206 575.777 119.776C575.82 118.345 573.213 116.702 573.121 117.079Z" fill="#B5453C"/>
<path d="M573.798 108.354C573.798 108.354 570.488 108.536 569.875 110.07C569.261 111.602 574.84 117.796 579.746 117.978C579.746 117.978 580.397 117.405 579.457 116.425C579.457 116.425 582.604 118.961 583.177 117.978C583.177 117.978 586.16 118.959 585.426 117.896C584.689 116.833 583.626 115.893 582.603 115.646C581.583 115.402 577.619 115.279 575.777 114.503C573.938 113.726 570.668 111.356 571.118 110.416C571.567 109.476 572.349 108.908 573.798 108.354Z" fill="#F99746"/>
<path d="M556.873 173.547H569.522C569.991 173.547 570.374 173.166 570.374 172.697C570.374 172.228 569.991 171.844 569.522 171.844H556.873C556.405 171.844 556.021 172.228 556.021 172.697C556.021 173.166 556.405 173.547 556.873 173.547Z" fill="#29CD61"/>
<path d="M563.898 168.859C563.898 168.859 563.565 171.586 563.702 171.586C563.837 171.586 565.847 171.475 566.283 171.721C566.721 171.968 565.473 173.606 565.063 173.661C565.063 173.661 565.854 172.214 565.473 172.266C565.092 172.323 563.401 172.432 563.209 172.323C563.02 172.214 562.196 170.862 562.421 169.569C562.61 168.473 563.898 168.859 563.898 168.859Z" fill="#F99746"/>
<path d="M573.566 151.366C573.566 151.366 574.492 150.281 572.96 149.403C571.426 148.525 567.237 148.321 565.049 149.874C562.864 151.427 563.865 154.513 562.106 154.963C560.349 155.412 556.343 157.333 554.953 161.585C553.563 165.835 541.628 172.721 543.671 172.877C545.714 173.031 549.72 171.132 549.72 171.132C549.72 171.132 548.603 172.512 549.259 172.649C549.912 172.784 554.271 171.939 555.635 170.36C555.635 170.36 554.707 171.314 555.389 171.449C556.071 171.586 562.937 169.761 564.682 168.425C566.425 167.09 571.65 163.465 570.393 158.928C570.393 158.928 571.598 156.054 570.864 155.045C570.133 154.037 570.895 152.701 570.895 152.701L573.566 151.366Z" fill="#B5453C"/>
<path d="M571.821 156.897C571.821 156.897 575.882 154.69 573.566 151.366C573.566 151.366 573.211 150.847 572.231 151.501C571.25 152.157 570.732 152.32 570.895 152.701C571.058 153.083 571.672 153.348 571.57 153.634C571.468 153.921 571.324 154.105 571.672 154.39C572.02 154.676 572.645 155.5 571.821 156.897Z" fill="#F99746"/>
<path d="M571.965 154.802C571.965 154.802 571.283 154.638 571.31 154.311C571.338 153.985 571.298 153.644 571.146 153.331C570.997 153.019 571.011 152.609 570.765 152.623C570.521 152.637 568.707 153.916 569.077 154.693C569.444 155.472 571.584 155.538 571.965 154.802Z" fill="#F99746"/>
<path d="M563.823 165.999C563.823 165.999 564.805 169.638 563.823 170.088C562.842 170.537 561.206 170.128 561.166 168.698C561.126 167.268 563.73 165.624 563.823 165.999Z" fill="#B5453C"/>
<path d="M563.148 157.273C563.148 157.273 566.458 157.458 567.071 158.992C567.684 160.524 562.104 166.716 557.2 166.901C557.2 166.901 556.547 166.325 557.487 165.345C557.487 165.345 554.34 167.883 553.767 166.901C553.767 166.901 550.784 167.881 551.52 166.818C552.256 165.755 553.319 164.815 554.34 164.568C555.363 164.325 559.326 164.201 561.166 163.425C563.006 162.648 566.276 160.276 565.826 159.336C565.376 158.396 564.597 157.827 563.148 157.273Z" fill="#F99746"/>
<path d="M612.638 122.314H612.113C612.113 97.6561 592.053 77.5943 567.393 77.5943C542.736 77.5943 522.674 97.6561 522.674 122.314H522.148C522.148 97.3649 542.447 77.0687 567.393 77.0687C592.342 77.0687 612.638 97.3649 612.638 122.314Z" fill="#82DF8B"/>
<path d="M612.638 197.679H522.148V122.314H522.674V197.153H612.113V122.314H612.638V197.679Z" fill="#82DF8B"/>
<path d="M607.055 122.314H606.532C606.532 97.6561 588.975 77.5943 567.393 77.5943C545.814 77.5943 528.257 97.6561 528.257 122.314H527.731C527.731 97.3649 545.525 77.0687 567.393 77.0687C589.264 77.0687 607.055 97.3649 607.055 122.314Z" fill="#82DF8B"/>
<path d="M607.055 197.679H527.731V122.314H528.257V197.153H606.532V122.314H607.055V197.679Z" fill="#82DF8B"/>
<path d="M599.218 122.314H598.692C598.692 97.6561 584.652 77.5943 567.393 77.5943C550.135 77.5943 536.094 97.6561 536.094 122.314H535.571C535.571 97.3649 549.846 77.0687 567.393 77.0687C584.94 77.0687 599.218 97.3649 599.218 122.314Z" fill="#82DF8B"/>
<path d="M599.218 197.679H535.571V122.314H536.094V197.153H598.692V122.314H599.218V197.679Z" fill="#82DF8B"/>
<path d="M588.407 122.314H587.881C587.881 97.6561 578.69 77.5943 567.393 77.5943C556.097 77.5943 546.907 97.6561 546.907 122.314H546.382C546.382 110.262 548.548 98.9253 552.483 90.3967C556.447 81.8018 561.744 77.0687 567.393 77.0687C573.045 77.0687 578.339 81.8018 582.305 90.3967C586.24 98.9253 588.407 110.262 588.407 122.314Z" fill="#82DF8B"/>
<path d="M588.407 197.679H546.382V122.314H546.907V197.153H587.881V122.314H588.407V197.679Z" fill="#82DF8B"/>
<path d="M576.192 122.314H575.666C575.666 98.0729 571.878 77.5943 567.393 77.5943C562.909 77.5943 559.12 98.0729 559.12 122.314H558.595C558.595 96.9435 562.461 77.0687 567.393 77.0687C572.328 77.0687 576.192 96.9435 576.192 122.314Z" fill="#82DF8B"/>
<path d="M576.192 197.679H558.595V122.314H559.12V197.153H575.666V122.314H576.192V197.679Z" fill="#82DF8B"/>
<path d="M616.971 213.547H517.818V201.761C517.818 199.488 519.66 197.646 521.933 197.646H612.797C615.103 197.646 616.971 199.514 616.971 201.818V213.547Z" fill="#F99746"/>
<path d="M612.375 118.653H522.411V118.128H612.375V118.653Z" fill="#82DF8B"/>
<path d="M612.375 169.361H522.411V168.835H612.375V169.361Z" fill="#82DF8B"/>
</svg>
