<svg width="64" height="78" viewBox="0 0 64 78" fill="none" xmlns="http://www.w3.org/2000/svg">
<path d="M32 4C24.5739 4 17.452 6.94999 12.201 12.201C6.94999 17.452 4 24.5739 4 32C4 38.622 5.407 42.955 9.25 47.75L32 74L54.75 47.75C58.593 42.955 60 38.622 60 32C60 24.5739 57.05 17.452 51.799 12.201C46.548 6.94999 39.4261 4 32 4Z" fill="#4ABF72" stroke="#4ABF72" stroke-width="7" stroke-linecap="round" stroke-linejoin="round"/>
<path d="M48.4345 41.6576C47.673 39.4855 45.8981 38.3847 44.1846 37.3203C42.6936 36.3935 41.2856 35.5177 40.3648 33.9453C37.8266 29.5898 36.4325 26.9616 32.2743 26.9616C28.1162 26.9616 26.7177 29.5907 24.1735 33.9444C23.2518 35.5203 21.8369 36.3978 20.3441 37.3264C18.6307 38.3916 16.8592 39.4898 16.0951 41.6576C15.7977 42.4393 15.648 43.2694 15.6538 44.1058C15.6538 47.6313 18.4619 50.5001 21.573 50.5001C24.684 50.5001 28.7825 48.9312 32.283 48.9312C35.7835 48.9312 39.8248 50.5001 42.9748 50.5001C46.1248 50.5001 48.8845 47.6313 48.8845 44.1058C48.887 43.2689 48.7344 42.4389 48.4345 41.6576Z" fill="white"/>
<path d="M16.346 35.2693C19.0224 35.2693 21.1921 32.4797 21.1921 29.0385C21.1921 25.5973 19.0224 22.8077 16.346 22.8077C13.6695 22.8077 11.4998 25.5973 11.4998 29.0385C11.4998 32.4797 13.6695 35.2693 16.346 35.2693Z" fill="white"/>
<path d="M26.0381 26.9616C28.7146 26.9616 30.8843 24.172 30.8843 20.7308C30.8843 17.2897 28.7146 14.5001 26.0381 14.5001C23.3617 14.5001 21.192 17.2897 21.192 20.7308C21.192 24.172 23.3617 26.9616 26.0381 26.9616Z" fill="white"/>
<path d="M38.5001 26.9616C41.1766 26.9616 43.3463 24.172 43.3463 20.7308C43.3463 17.2897 41.1766 14.5001 38.5001 14.5001C35.8237 14.5001 33.654 17.2897 33.654 20.7308C33.654 24.172 35.8237 26.9616 38.5001 26.9616Z" fill="white"/>
<path d="M48.1923 35.2693C50.8687 35.2693 53.0384 32.4797 53.0384 29.0385C53.0384 25.5973 50.8687 22.8077 48.1923 22.8077C45.5158 22.8077 43.3461 25.5973 43.3461 29.0385C43.3461 32.4797 45.5158 35.2693 48.1923 35.2693Z" fill="white"/>
</svg>
