<svg width="299" height="78" viewBox="0 0 299 78" fill="none" xmlns="http://www.w3.org/2000/svg">
<path d="M32 4C24.5739 4 17.452 6.94999 12.201 12.201C6.94999 17.452 4 24.5739 4 32C4 38.622 5.407 42.955 9.25 47.75L32 74L54.75 47.75C58.593 42.955 60 38.622 60 32C60 24.5739 57.05 17.452 51.799 12.201C46.548 6.94999 39.4261 4 32 4Z" fill="#4ABF72" stroke="#4ABF72" stroke-width="7" stroke-linecap="round" stroke-linejoin="round"/>
<path d="M48.4345 41.6576C47.673 39.4855 45.8981 38.3847 44.1846 37.3203C42.6935 36.3935 41.2856 35.5177 40.3648 33.9453C37.8266 29.5898 36.4325 26.9616 32.2743 26.9616C28.1161 26.9616 26.7177 29.5907 24.1734 33.9444C23.2518 35.5203 21.8369 36.3978 20.3441 37.3264C18.6306 38.3916 16.8592 39.4898 16.0951 41.6576C15.7977 42.4393 15.648 43.2694 15.6537 44.1058C15.6537 47.6313 18.4619 50.5001 21.573 50.5001C24.684 50.5001 28.7825 48.9312 32.283 48.9312C35.7834 48.9312 39.8248 50.5001 42.9748 50.5001C46.1248 50.5001 48.8845 47.6313 48.8845 44.1058C48.887 43.2689 48.7344 42.4389 48.4345 41.6576Z" fill="white"/>
<path d="M16.3459 35.2693C19.0224 35.2693 21.1921 32.4797 21.1921 29.0385C21.1921 25.5973 19.0224 22.8077 16.3459 22.8077C13.6695 22.8077 11.4998 25.5973 11.4998 29.0385C11.4998 32.4797 13.6695 35.2693 16.3459 35.2693Z" fill="white"/>
<path d="M26.038 26.9616C28.7145 26.9616 30.8842 24.172 30.8842 20.7308C30.8842 17.2897 28.7145 14.5001 26.038 14.5001C23.3616 14.5001 21.1919 17.2897 21.1919 20.7308C21.1919 24.172 23.3616 26.9616 26.038 26.9616Z" fill="white"/>
<path d="M38.5001 26.9616C41.1765 26.9616 43.3462 24.172 43.3462 20.7308C43.3462 17.2897 41.1765 14.5001 38.5001 14.5001C35.8236 14.5001 33.6539 17.2897 33.6539 20.7308C33.6539 24.172 35.8236 26.9616 38.5001 26.9616Z" fill="white"/>
<path d="M48.1922 35.2693C50.8687 35.2693 53.0384 32.4797 53.0384 29.0385C53.0384 25.5973 50.8687 22.8077 48.1922 22.8077C45.5158 22.8077 43.3461 25.5973 43.3461 29.0385C43.3461 32.4797 45.5158 35.2693 48.1922 35.2693Z" fill="white"/>
<path d="M89.984 24.2C92.712 24.2 95.0733 24.6547 97.068 25.564C99.092 26.4733 100.647 27.764 101.732 29.436C102.817 31.108 103.36 33.088 103.36 35.376C103.36 37.6347 102.817 39.6147 101.732 41.316C100.647 42.988 99.092 44.2787 97.068 45.188C95.0733 46.068 92.712 46.508 89.984 46.508H83.78V55H76.652V24.2H89.984ZM89.588 40.7C91.7293 40.7 93.3573 40.2453 94.472 39.336C95.5867 38.3973 96.144 37.0773 96.144 35.376C96.144 33.6453 95.5867 32.3253 94.472 31.416C93.3573 30.4773 91.7293 30.008 89.588 30.008H83.78V40.7H89.588ZM117.298 30.976C120.965 30.976 123.781 31.856 125.746 33.616C127.711 35.3467 128.694 37.972 128.694 41.492V55H122.27V52.052C120.979 54.252 118.574 55.352 115.054 55.352C113.235 55.352 111.651 55.044 110.302 54.428C108.982 53.812 107.97 52.9613 107.266 51.876C106.562 50.7907 106.21 49.5587 106.21 48.18C106.21 45.98 107.031 44.2493 108.674 42.988C110.346 41.7267 112.913 41.096 116.374 41.096H121.83C121.83 39.6 121.375 38.456 120.466 37.664C119.557 36.8427 118.193 36.432 116.374 36.432C115.113 36.432 113.866 36.6373 112.634 37.048C111.431 37.4293 110.405 37.9573 109.554 38.632L107.09 33.836C108.381 32.9267 109.921 32.2227 111.71 31.724C113.529 31.2253 115.391 30.976 117.298 30.976ZM116.77 50.732C117.943 50.732 118.985 50.468 119.894 49.94C120.803 49.3827 121.449 48.576 121.83 47.52V45.1H117.122C114.306 45.1 112.898 46.024 112.898 47.872C112.898 48.752 113.235 49.456 113.91 49.984C114.614 50.4827 115.567 50.732 116.77 50.732ZM172.493 31.328L163.913 55H157.313L151.989 40.304L146.489 55H139.889L131.353 31.328H137.821L143.409 47.344L149.217 31.328H155.025L160.657 47.344L166.421 31.328H172.493ZM183.304 55.352C181.339 55.352 179.417 55.1173 177.54 54.648C175.663 54.1493 174.167 53.5333 173.052 52.8L175.34 47.872C176.396 48.5467 177.672 49.104 179.168 49.544C180.664 49.9547 182.131 50.16 183.568 50.16C186.472 50.16 187.924 49.4413 187.924 48.004C187.924 47.3293 187.528 46.8453 186.736 46.552C185.944 46.2587 184.727 46.0093 183.084 45.804C181.148 45.5107 179.549 45.1733 178.288 44.792C177.027 44.4107 175.927 43.736 174.988 42.768C174.079 41.8 173.624 40.4213 173.624 38.632C173.624 37.136 174.049 35.816 174.9 34.672C175.78 33.4987 177.041 32.5893 178.684 31.944C180.356 31.2987 182.321 30.976 184.58 30.976C186.252 30.976 187.909 31.1667 189.552 31.548C191.224 31.9 192.603 32.3987 193.688 33.044L191.4 37.928C189.317 36.7547 187.044 36.168 184.58 36.168C183.113 36.168 182.013 36.3733 181.28 36.784C180.547 37.1947 180.18 37.7227 180.18 38.368C180.18 39.1013 180.576 39.6147 181.368 39.908C182.16 40.2013 183.421 40.48 185.152 40.744C187.088 41.0667 188.672 41.4187 189.904 41.8C191.136 42.152 192.207 42.812 193.116 43.78C194.025 44.748 194.48 46.0973 194.48 47.828C194.48 49.2947 194.04 50.6 193.16 51.744C192.28 52.888 190.989 53.7827 189.288 54.428C187.616 55.044 185.621 55.352 183.304 55.352ZM209.979 55.352C207.486 55.352 205.242 54.8387 203.247 53.812C201.282 52.756 199.742 51.304 198.627 49.456C197.512 47.608 196.955 45.5107 196.955 43.164C196.955 40.8173 197.512 38.72 198.627 36.872C199.742 35.024 201.282 33.5867 203.247 32.56C205.242 31.504 207.486 30.976 209.979 30.976C212.472 30.976 214.702 31.504 216.667 32.56C218.632 33.5867 220.172 35.024 221.287 36.872C222.402 38.72 222.959 40.8173 222.959 43.164C222.959 45.5107 222.402 47.608 221.287 49.456C220.172 51.304 218.632 52.756 216.667 53.812C214.702 54.8387 212.472 55.352 209.979 55.352ZM209.979 49.72C211.739 49.72 213.176 49.1333 214.291 47.96C215.435 46.7573 216.007 45.1587 216.007 43.164C216.007 41.1693 215.435 39.5853 214.291 38.412C213.176 37.2093 211.739 36.608 209.979 36.608C208.219 36.608 206.767 37.2093 205.623 38.412C204.479 39.5853 203.907 41.1693 203.907 43.164C203.907 45.1587 204.479 46.7573 205.623 47.96C206.767 49.1333 208.219 49.72 209.979 49.72ZM257.863 30.976C260.826 30.976 263.172 31.856 264.903 33.616C266.663 35.3467 267.543 37.9573 267.543 41.448V55H260.679V42.504C260.679 40.6267 260.283 39.2333 259.491 38.324C258.728 37.3853 257.628 36.916 256.191 36.916C254.578 36.916 253.302 37.444 252.363 38.5C251.424 39.5267 250.955 41.0667 250.955 43.12V55H244.091V42.504C244.091 38.7787 242.595 36.916 239.603 36.916C238.019 36.916 236.758 37.444 235.819 38.5C234.88 39.5267 234.411 41.0667 234.411 43.12V55H227.547V31.328H234.103V34.056C234.983 33.0587 236.054 32.296 237.315 31.768C238.606 31.24 240.014 30.976 241.539 30.976C243.211 30.976 244.722 31.3133 246.071 31.988C247.42 32.6333 248.506 33.5867 249.327 34.848C250.295 33.616 251.512 32.6627 252.979 31.988C254.475 31.3133 256.103 30.976 257.863 30.976ZM297.141 43.252C297.141 43.34 297.097 43.956 297.009 45.1H279.101C279.424 46.5667 280.186 47.7253 281.389 48.576C282.592 49.4267 284.088 49.852 285.877 49.852C287.109 49.852 288.194 49.676 289.133 49.324C290.101 48.9427 290.996 48.356 291.817 47.564L295.469 51.524C293.24 54.076 289.984 55.352 285.701 55.352C283.032 55.352 280.67 54.8387 278.617 53.812C276.564 52.756 274.98 51.304 273.865 49.456C272.75 47.608 272.193 45.5107 272.193 43.164C272.193 40.8467 272.736 38.764 273.821 36.916C274.936 35.0387 276.446 33.5867 278.353 32.56C280.289 31.504 282.445 30.976 284.821 30.976C287.138 30.976 289.236 31.4747 291.113 32.472C292.99 33.4693 294.457 34.9067 295.513 36.784C296.598 38.632 297.141 40.788 297.141 43.252ZM284.865 36.168C283.31 36.168 282.005 36.608 280.949 37.488C279.893 38.368 279.248 39.5707 279.013 41.096H290.673C290.438 39.6 289.793 38.412 288.737 37.532C287.681 36.6227 286.39 36.168 284.865 36.168Z" fill="#4ABF72"/>
</svg>
