<svg width="454" height="565" viewBox="0 0 454 565" fill="none" xmlns="http://www.w3.org/2000/svg">
<path d="M141.384 386.528C141.384 386.528 68.5107 530.579 71.764 541.734C75.0187 552.889 124.287 571.481 154.265 572.411C184.245 573.34 183.315 397.547 181.456 395.737C179.597 393.929 141.384 386.528 141.384 386.528Z" fill="#251D32"/>
<path d="M154.265 56.7174C147.531 67.6027 153.22 86.1187 165.421 99.0161C177.621 111.915 170.999 138.324 154.265 152.309C137.533 166.296 116.779 195.272 141.528 217.235C166.279 239.196 181.456 224.511 195.748 241.941C210.041 259.371 219.773 286.909 257.261 279.241C294.749 271.572 338.112 242.289 345.539 192.44C352.965 142.591 354.424 75.0707 321.972 49.22C289.521 23.372 263.131 28.8494 236.935 40.2281C210.739 51.6081 165.769 38.1227 154.265 56.7174Z" fill="#F2556B"/>
<path d="M156.035 226.895C156.035 226.895 135.791 192.092 166.117 170.828C196.445 149.563 215.381 140.372 210.096 117.603C204.812 94.8334 186.068 55.2987 221.245 44.2867" stroke="#F46B80" stroke-width="1.33333" stroke-miterlimit="10" stroke-linecap="round" stroke-linejoin="round"/>
<path d="M171.641 231.151C171.641 231.151 161.935 216.843 164.375 197.321C166.815 177.8 173.916 167.157 187.852 155.8" stroke="#F46B80" stroke-width="1.33333" stroke-miterlimit="10" stroke-linecap="round" stroke-linejoin="round"/>
<path d="M309.503 238.804C329.959 244.729 390.616 292.836 384.689 324.907C378.761 356.977 329.959 460.86 329.959 499.903C329.959 538.945 340.205 571.016 337.521 576.593C334.839 582.171 291.125 610.059 219.209 608.664C147.293 607.271 115.223 569.621 115.92 557.769C116.617 545.917 127.075 442.036 143.808 392.535C143.808 392.535 124.984 353.492 143.111 317.237C153.712 296.036 188.669 243.975 207.493 237.352C226.317 230.728 309.503 238.804 309.503 238.804Z" fill="#60CAC5"/>
<path d="M326.821 329.091C276.923 302.517 178.773 303.953 149.9 305.015C147.127 309.668 144.805 313.849 143.111 317.237C124.984 353.492 143.808 392.535 143.808 392.535C143.564 393.255 143.323 393.989 143.081 394.732C177.675 398.209 243.943 405.155 278.795 410.661C313.5 416.145 336.381 427.329 346.609 433.26C354.96 409.385 364.909 384.08 372.625 363.057C366.831 355.015 354.115 343.625 326.821 329.091Z" fill="#06A09D"/>
<path d="M334.712 309.035C299.701 289.779 202.124 284.045 164.477 282.523C161.249 287.149 158.179 291.757 155.373 296.153C182.585 297.08 292.957 301.983 327.993 321.252C355.125 336.176 368.931 349.836 374.877 356.859C376.811 351.48 378.557 346.449 380.041 341.876C371.617 333.352 357.424 321.527 334.712 309.035Z" fill="#06A09D"/>
<path d="M140.844 402.076C139.611 406.367 138.417 410.929 137.263 415.697C183.623 420.997 284.292 433.575 303.029 440.861C325.983 449.788 336.439 461.201 336.519 461.289L337.812 460.148C339.057 455.968 340.416 451.655 341.861 447.248C336.012 442.309 325.009 434.448 308.084 427.865C285.997 419.277 175.18 406.032 140.844 402.076Z" fill="#06A09D"/>
<path d="M75.188 411.899C75.188 411.899 63.076 391.409 63.4227 374.763C63.7707 358.116 71.68 339.885 75.5573 338.168C79.436 336.451 104.803 327.408 107.62 329.923C110.437 332.437 90.3933 344.072 90.3933 344.072C90.3933 344.072 111.972 342.601 113.24 344.735C114.509 346.868 92.9693 354.087 92.9693 354.087C92.9693 354.087 114.709 354.736 114.392 356.257C114.075 357.779 91.5413 363.932 91.5413 363.932C91.5413 363.932 109.049 364.829 111.596 366.335C114.143 367.839 98.0186 372.324 93.044 373.973C88.0693 375.624 96.6547 395.012 94.34 402.807C92.0253 410.6 81.112 418.752 75.188 411.899Z" fill="#F6857A"/>
<path d="M243.375 192.739C243.375 192.739 247.011 218.236 240.029 241.941C240.029 241.941 238.873 254.433 255.839 259.205C278.149 265.48 309.503 238.804 309.503 238.804C309.503 238.804 298.915 213.877 303.792 179.877L243.375 192.739Z" fill="#F9AC95"/>
<path d="M243.375 192.739C243.375 192.739 244.323 199.413 244.319 209.097C246.968 213.217 250.385 216.812 254.659 218.236C264.524 221.524 290.453 204.273 302.912 187.884C303.117 185.277 303.4 182.611 303.792 179.877L243.375 192.739Z" fill="#F6857A"/>
<path d="M313.923 235.86C312.993 231.716 312.733 209.663 307.793 208.437C302.852 207.212 275.809 218.548 271.627 220.019C267.443 221.491 267.608 227.997 267.525 247.984C267.443 267.969 267.053 280.56 267.053 280.56C267.053 280.56 247.453 300.747 247.457 304.559C247.461 308.372 247.28 350.949 247.457 386.957C247.633 422.965 237.567 546.847 236.935 561.72C236.301 576.593 236.767 582.636 252.569 583.101C268.373 583.565 311.599 578.453 331.12 572.41C350.641 566.368 360.403 560.791 361.332 558.467C362.261 556.143 342.141 500.367 341.743 485.029C341.345 469.691 357.837 428.879 372.832 387.001C387.825 345.125 399.256 328.228 385.095 300.793C364.12 260.161 313.923 235.86 313.923 235.86Z" fill="#322742"/>
<path d="M311.291 214.832C311.291 214.832 276.96 226.257 274.757 226.895C272.556 227.532 275.1 284.237 274.757 287.027C274.415 289.815 255.819 305.015 254.659 309.267C253.5 313.52 255.819 392.069 254.659 437.155C253.5 482.24 245.597 559.396 245.133 564.044C244.668 568.692 243.785 574.269 250.501 574.734C257.217 575.198 327.553 570.18 359.316 550.148" stroke="#3C364A" stroke-width="1.33333" stroke-miterlimit="10" stroke-linecap="round" stroke-linejoin="round"/>
<path d="M341.743 558.567C341.743 558.567 341.391 557.433 340.824 555.368" stroke="#3C364A" stroke-width="1.33333" stroke-linecap="round" stroke-linejoin="round"/>
<path d="M339.195 549.028C335.393 533.263 329.24 500.595 334.692 471.279C342.213 430.827 366.911 367.436 371.441 343.035C375.479 321.293 383.865 313.94 381.023 297.648" stroke="#3C364A" stroke-width="1.33333" stroke-linecap="round" stroke-linejoin="round" stroke-dasharray="6.55 6.55"/>
<path d="M380.341 294.433C380.087 293.4 379.788 292.331 379.445 291.221" stroke="#3C364A" stroke-width="1.33333" stroke-linecap="round" stroke-linejoin="round"/>
<path d="M300.676 36.9668C256.489 19.1214 222.591 39.0588 200.28 85.7694C177.971 132.481 192.611 172.221 223.288 186.165C253.964 200.109 304.163 203.596 334.839 139.453C360.281 86.2547 336.931 51.6081 300.676 36.9668Z" fill="#F9AC95"/>
<path d="M226.916 70.9547C226.916 70.9547 233.725 64.9507 242.459 65.3774C256.752 66.0747 260.411 61.3681 254.659 58.2307C246.419 53.7361 229.385 59.6254 226.916 70.9547Z" fill="#F2556B"/>
<path d="M298.408 100.585C298.408 100.585 295.096 88.4267 283.899 81.4174C272.749 74.4387 281.088 69.9681 286.339 72.4161C296.665 77.2294 301.371 87.8614 298.408 100.585Z" fill="#F2556B"/>
<path d="M254.659 84.724C254.659 84.724 248.384 109.956 239.669 112.504C230.955 115.052 223.285 109.125 220.497 110.52C217.708 111.915 219.451 125.859 225.725 133.179" stroke="#F37366" stroke-width="2" stroke-miterlimit="10" stroke-linecap="round" stroke-linejoin="round"/>
<path d="M267.388 116.688C265.088 115.413 275.584 109.024 281.199 110.517C286.813 112.009 290.799 119.097 290.512 122.869C290.225 126.643 285.443 124.737 283.837 120.845C280.197 112.019 269.064 117.617 267.388 116.688Z" fill="#1C1C22"/>
<path d="M236.024 102.348C238.924 102.687 234.436 90.0814 229.004 88.6481C224.177 87.3748 218.477 91.8654 217.161 95.0214C215.929 97.9761 219.273 98.8547 221.887 96.6214C228.876 90.6481 234.027 102.115 236.024 102.348Z" fill="#1C1C22"/>
<path d="M307.329 159.635C302.021 168.797 288.671 170.984 277.509 164.519C266.347 158.053 261.601 145.385 266.908 136.223C272.216 127.06 285.567 124.872 296.728 131.337C307.891 137.803 312.636 150.472 307.329 159.635Z" fill="#F688A1"/>
<path d="M219.209 141.007C219.209 141.007 222.576 149.605 235.125 151.929C247.675 154.253 258.132 145.189 258.132 145.189" stroke="#F37366" stroke-width="2" stroke-miterlimit="10" stroke-linecap="round" stroke-linejoin="round"/>
<path d="M189.893 121.772C199.213 124.253 208.635 121.405 212.889 114.061C218.196 104.899 213.449 92.2294 202.288 85.7641C201.763 85.4601 201.229 85.1934 200.696 84.9281C200.559 85.2121 200.417 85.4841 200.28 85.7694C194.244 98.4081 190.933 110.527 189.893 121.772Z" fill="#F688A1"/>
<path d="M340.068 141.007C340.068 141.007 320.895 139.495 316.363 127.623C311.831 115.749 318.803 105.292 325.601 93.7881C332.399 82.2841 327.136 66.5974 311.291 68.3401C311.291 68.3401 307.648 40.4521 283.595 38.3614C259.541 36.2694 245.249 66.2481 209.692 62.0654C174.136 57.8828 167.164 47.8827 154.265 56.7174C154.265 56.7174 157.403 40.1041 180.411 41.1494C203.417 42.1961 224.288 31.0401 242.089 12.5641C259.891 -5.91058 300.676 -2.07593 319.5 8.73074C338.324 19.5361 345.993 42.8934 341.811 58.9281C341.811 58.9281 359.937 64.5054 365.515 79.4947C371.092 94.4854 352.036 141.545 356.219 170.363C360.403 199.18 373.449 217.307 375.756 238.688C378.064 260.068 377.716 272.617 359.767 280.375C350.636 284.32 350.237 276.336 321.728 296.323C293.217 316.308 266.724 264.252 280.668 239.617C294.612 214.983 306.696 219.479 309.719 201.917C317.409 157.232 340.068 141.007 340.068 141.007Z" fill="#F46B80"/>
<path d="M328.44 291.789C344.948 281.332 354.011 265.645 347.736 237.061C341.461 208.476 335.672 171.176 345.539 138.408C355.405 105.64 359.937 66.3041 326.821 63.8361" stroke="#F2556B" stroke-width="1.33333" stroke-miterlimit="10" stroke-linecap="round" stroke-linejoin="round"/>
<path d="M311.291 300.793C311.291 300.793 336.371 283.772 337.521 249.261C338.673 214.751 334.883 184.392 341.743 155.8" stroke="#F2556B" stroke-width="1.33333" stroke-miterlimit="10" stroke-linecap="round" stroke-linejoin="round"/>
<path d="M358.195 71.74C358.195 71.74 372.139 81.2387 367.257 108.952C362.377 136.665 359.589 169.052 373.533 194.516C387.476 219.98 390.613 257.28 369.699 267.04" stroke="#F46B80" stroke-width="1.33333" stroke-miterlimit="10" stroke-linecap="round" stroke-linejoin="round"/>
<path d="M311.291 173.429L334.839 139.453C334.839 139.453 352.22 128.873 360.767 138.757C372.487 152.309 348.4 188.581 311.291 173.429Z" fill="#F6857A"/>
<path d="M360.767 138.757C352.22 128.873 334.839 139.453 334.839 139.453L329.691 146.881C338.288 146.08 353.16 147.061 358.517 162.001C364.32 153.864 365.619 144.367 360.767 138.757Z" fill="#F9AC95"/>
<path d="M136.636 368.323C136.636 368.323 133.583 350.239 142.879 339.548C152.175 328.857 181.24 300.749 193.541 291.789C205.841 282.831 241.82 234.781 241.82 234.781C241.82 234.781 208.879 227.777 193.541 239.507C178.203 251.237 140.555 308.872 133.583 322.351C126.611 335.829 129.929 365.027 136.636 368.323Z" fill="#251D32"/>
<path d="M132.583 362.292C132.583 362.292 130.76 338.619 138.679 330.717C146.596 322.816 206.091 272.617 206.091 272.617" stroke="#3C364A" stroke-width="1.33333" stroke-miterlimit="10" stroke-linecap="round" stroke-linejoin="round"/>
<path d="M243.384 210.667C243.384 210.667 203.656 211.579 203.191 214.832C202.727 218.085 208.879 267.505 206.091 272.617C203.301 277.731 193.541 291.789 193.541 291.789C193.541 291.789 213.992 277.265 226.076 267.04C238.161 256.815 243.959 239.645 243.959 239.645L243.384 210.667Z" fill="#322742"/>
<path d="M90.7893 450.789C90.7893 450.789 67.8693 463.732 33.6186 443.477C3.63998 425.751 0.618649 379.852 28.5066 365.661C28.5066 365.661 24.3226 391.936 43.38 418.597C60.472 442.51 90.7893 450.789 90.7893 450.789Z" fill="#263345"/>
<path d="M216.519 311.104C216.519 311.104 230.864 308.48 238.836 317.379C246.808 326.279 253.245 343.408 248.597 354.331C243.949 365.253 227.665 371.644 216.519 363.336C205.371 355.028 204.436 347.157 197.751 345.732C191.065 344.305 181.899 342.012 173.997 325.629C166.096 309.245 155.637 283.461 170.047 273.345C184.455 263.231 193.984 269.505 202.349 281.823C210.716 294.14 216.519 311.104 216.519 311.104Z" fill="#263345"/>
<path d="M216.519 311.104C209.645 312.736 196.356 319.279 197.751 332.717" stroke="#15222F" stroke-width="1.33333" stroke-miterlimit="10" stroke-linecap="round" stroke-linejoin="round"/>
<path d="M236.009 333.927C236.009 333.927 248.132 343.408 246.795 357.557" stroke="#15222F" stroke-width="1.33333" stroke-miterlimit="10" stroke-linecap="round" stroke-linejoin="round"/>
<path d="M220.465 343.408C220.465 343.408 231.237 356.488 233.061 366.564" stroke="#15222F" stroke-width="1.33333" stroke-miterlimit="10" stroke-linecap="round" stroke-linejoin="round"/>
<path d="M203.027 381.268C226.576 391.143 220.947 441.475 220.947 441.475C220.947 441.475 237.679 427.183 247.44 429.623C257.2 432.063 258.293 449.957 240.143 468.55C221.992 487.141 201.107 491.996 195.34 470.571C195.34 470.571 139.259 473.197 138.445 437.292C137.632 401.387 171.321 367.973 203.027 381.268Z" fill="#263345"/>
<path d="M220.947 441.475C217.576 445.309 212.553 452.71 210.695 458.886" stroke="#15222F" stroke-width="1.33333" stroke-miterlimit="10" stroke-linecap="round" stroke-linejoin="round"/>
<path d="M244.183 451.687C241.153 451.687 246.043 439.601 249.528 440.531C253.015 441.46 248.831 451.687 244.183 451.687Z" fill="#F688A1"/>
<path d="M237.676 451.497C234.883 453.215 237.676 442.208 240.697 442.027C243.719 441.845 241.731 449.004 237.676 451.497Z" fill="#F688A1"/>
<path d="M246.303 461.311C245.891 459.38 245.105 457.72 243.951 456.567C239.768 452.384 227.683 454.94 219.317 466.327C213.079 474.819 214.599 480.753 218.276 483.427C225.248 481.174 232.911 475.957 240.143 468.55C242.521 466.114 244.561 463.689 246.303 461.311Z" fill="#F688A1"/>
<path d="M247.917 455.922C248.307 456.332 248.844 456.497 249.459 456.503C251.161 453.561 252.383 450.736 253.187 448.085C250.112 450.355 247.097 455.06 247.917 455.922Z" fill="#F688A1"/>
<path d="M96.5973 269.063C96.5973 269.063 113.081 306.568 96.5973 336.896C80.1133 367.224 61.9867 408.893 73.8387 440C85.6907 471.105 111.152 487.483 141.467 485.745C141.467 485.745 146.696 501.086 158.199 501.781C169.703 502.479 183.647 498.644 197.591 484.004C211.535 469.363 210.192 448.447 193.608 452.631C193.608 452.631 191.267 443.683 187.132 435.55C187.132 435.55 198.636 426.137 203.168 399.644C206.46 380.399 195.868 361.784 201.076 342.473C207.351 319.211 196.223 276.36 171.871 254.037L96.5973 269.063Z" fill="#303A4A"/>
<path d="M193.608 452.631C185.779 453.769 169.237 461.809 155.759 480.633" stroke="#15222F" stroke-width="1.33333" stroke-miterlimit="10" stroke-linecap="round" stroke-linejoin="round"/>
<path d="M89.7573 443.683C89.7573 443.683 115.593 411.007 142.048 407.196C169.471 403.245 178.767 421.605 187.132 435.55" stroke="#15222F" stroke-width="1.33333" stroke-miterlimit="10" stroke-linecap="round" stroke-linejoin="round"/>
<path d="M194.801 468.55C191.772 468.55 196.661 456.464 200.147 457.395C203.633 458.324 199.449 468.55 194.801 468.55Z" fill="#F688A1"/>
<path d="M188.295 468.36C185.501 470.077 188.295 459.071 191.316 458.891C194.337 458.708 192.349 465.867 188.295 468.36Z" fill="#F688A1"/>
<path d="M169.935 483.191C163.196 492.363 165.511 498.552 169.82 500.868C178.367 498.991 187.653 494.191 196.957 484.638C197.771 480.064 196.887 475.747 194.569 473.429C190.387 469.247 178.301 471.803 169.935 483.191Z" fill="#F688A1"/>
<path d="M198.536 472.786C199.993 474.319 203.409 472.68 205.883 470.365C206.619 468.077 207.036 465.851 207.117 463.786C203.56 463.095 197.405 471.596 198.536 472.786Z" fill="#F688A1"/>
<path d="M164.379 338.779C164.379 338.779 185.095 332.663 197.337 342.457C209.58 352.251 218.039 371.839 210.025 384.08C202.012 396.323 178.195 392.539 169.292 380.964C160.388 369.389 136.539 374.955 125.648 368.723C114.757 362.489 104.796 344.183 102.071 326.541C99.3453 308.9 117.625 287.923 136.447 300.611C155.268 313.297 164.379 338.779 164.379 338.779Z" fill="#263345"/>
<path d="M135.479 357.848C135.479 357.848 143.219 343.115 164.379 338.779" stroke="#15222F" stroke-width="1.33333" stroke-miterlimit="10" stroke-linecap="round" stroke-linejoin="round"/>
<path d="M202.34 361.821C202.34 361.821 210.696 369.615 210.695 382.969" stroke="#15222F" stroke-width="1.33333" stroke-miterlimit="10" stroke-linecap="round" stroke-linejoin="round"/>
<path d="M187.384 371.393C187.384 371.393 195.535 378.172 198.663 391.143" stroke="#15222F" stroke-width="1.33333" stroke-miterlimit="10" stroke-linecap="round" stroke-linejoin="round"/>
<path d="M94.7827 268.304C94.7827 268.304 110.797 274.529 133.913 269.384C157.029 264.24 179.153 249.681 179.153 249.681C179.153 249.681 182.252 247.075 184.112 254.279C185.971 261.483 186.203 269.232 183.181 273.491C180.16 277.751 166.681 287.744 143.907 292.856C121.132 297.969 105.336 293.545 102.772 291.463C99.0534 288.441 90.744 268.851 94.7827 268.304Z" fill="#079EA0"/>
<path d="M119.383 184.968C119.383 184.968 111.673 152.612 117.551 149.241C123.428 145.871 129.277 143.847 133.321 137.376C137.367 130.905 144.613 135.493 152.853 138.861C171.001 146.277 177.203 141.021 181.276 142.565C189.093 145.529 182.759 162.604 162.361 166.704C145.601 170.073 140.395 167.644 140.395 167.644C140.395 167.644 138.957 177.204 135.561 181.472C129.991 188.473 123.157 187.664 119.383 184.968Z" fill="#263345"/>
<path d="M120.16 157.403C120.16 157.403 125.045 163.936 140.395 167.644" stroke="#15222F" stroke-width="1.33333" stroke-miterlimit="10" stroke-linecap="round" stroke-linejoin="round"/>
<path d="M88.1307 172.94C56.9893 194.479 56.9893 224.3 67.912 244.285C80.7187 267.719 113.463 282.097 147.857 268.304C182.252 254.511 202.585 231.436 192.943 203.703C183.3 175.969 166.36 173.052 153.623 176.133C153.623 176.133 125.889 146.825 88.1307 172.94Z" fill="#303A4A"/>
<path d="M191.681 206.775C188.779 207.827 182.824 208.355 175.407 200.131C175.407 200.131 183.203 214.887 175.407 225.345C175.265 225.535 175.104 225.7 174.957 225.884C174.96 225.887 174.972 225.897 174.972 225.897C174.972 225.897 197.167 253.332 208.391 239.869C218.273 228.017 191.681 206.775 191.681 206.775Z" fill="#F688A1"/>
<path d="M193.608 205.783C193.608 205.783 185.991 211.867 175.407 200.131C175.407 200.131 183.201 214.887 175.407 225.345C167.611 235.803 152.273 237.547 143.907 228.831" stroke="#1C1C22" stroke-width="2.66667" stroke-miterlimit="10" stroke-linecap="round" stroke-linejoin="round"/>
<path d="M144.333 200.435C139.835 196.024 172.251 172.525 177.48 176.608C182.709 180.689 179.019 196.056 175.407 200.131C171.795 204.205 149.184 205.189 144.333 200.435Z" fill="#1C1C22"/>
<path d="M102.54 194.479C93.8693 200.593 94.152 228.48 106.956 237.779C119.759 247.077 143.749 230.467 143.907 214.473C144.063 198.48 116.484 184.643 102.54 194.479Z" fill="#263345"/>
<path d="M131.547 212.111C133.129 210.56 122.352 204.491 118.356 206.72C114.359 208.949 111.384 219.225 113.38 221.464C115.376 223.703 119.74 222.851 119.66 219.552C119.58 216.255 119.651 213.445 122.715 212.268C125.34 211.26 129.929 213.696 131.547 212.111Z" fill="#1C1C22"/>
<path d="M47.6547 221.781C47.6547 221.781 74.6733 229.751 82.836 225.869C87.092 223.845 82.5853 215.063 84.8387 205.559C87.092 196.056 95.1027 194.476 95.1027 190.259C95.1027 186.041 77.6187 158.612 69.0867 159.183C60.5533 159.755 64.884 186.884 58.0507 195.805C51.216 204.728 43.5253 220.653 47.6547 221.781Z" fill="#1C1C22"/>
<path d="M49.0373 222.459C43.8827 221.72 48.7866 210.076 55.0453 195.805C61.3053 181.536 60.5533 161.007 66.5627 159.004C72.5707 157 109.6 183.788 108.609 193.803C107.62 203.817 76.076 226.329 49.0373 222.459Z" fill="#263345"/>
<path d="M376.756 300.793C358.361 278.059 319.965 298.82 284.64 331.647C249.316 364.473 241.299 378.36 237.471 380.684C233.641 383.008 227.281 379.289 224.419 380.684C221.557 382.079 223.028 391.527 219.039 390.521C215.049 389.515 213.028 381.149 209.159 382.079C205.289 383.008 203.859 389.809 200.949 391.289C198.039 392.769 162.235 382.933 123.101 371.695C99.9666 365.052 85.9013 362.72 81.1573 362.521C76.412 362.323 56.4266 374.389 63.3986 396.709C70.3706 419.028 194.193 492.089 219.039 493.95C243.884 495.808 256.388 484.65 308.033 442.819C368.073 394.187 409.472 341.229 376.756 300.793Z" fill="#41334C"/>
<path d="M211.796 394.797C211.796 394.797 229.104 417.633 230.147 443.197C230.147 443.197 242.519 402.159 220.145 396.709" stroke="#322742" stroke-width="1.33333" stroke-miterlimit="10" stroke-linecap="round" stroke-linejoin="round"/>
<path d="M240.013 390.211C240.013 390.211 246.776 413.448 246.884 432.274" stroke="#322742" stroke-width="1.33333" stroke-miterlimit="10" stroke-linecap="round" stroke-linejoin="round"/>
<path d="M388.273 333.505C388.273 333.505 354.836 381.668 314.161 421.729C273.485 461.789 242.435 475.733 238.671 476.197C234.908 476.663 234.211 470.156 231.305 470.62C228.4 471.086 226.081 474.851 223.523 476.221C220.964 477.592 218.481 471.086 213.912 470.62C209.344 470.156 144.432 463.217 80.3907 415.077" stroke="#322742" stroke-width="1.33333" stroke-miterlimit="10" stroke-linecap="round" stroke-linejoin="round" stroke-dasharray="6.67 6.67"/>
<path d="M82.304 267.413C82.304 267.413 73.188 274.42 84.9 281.481C84.9 281.481 78.6267 289.068 89.868 293.732C89.868 293.732 85.232 300.535 93.94 304.496C93.94 304.496 90.9693 311.317 98.7907 314.455C106.611 317.592 111.749 315.913 113.519 312.456C115.288 309 108.161 305.719 108.161 305.719C108.161 305.719 114.544 304.139 114.263 299.981C113.98 295.824 105.864 293.753 105.864 293.753C105.864 293.753 110.973 292.707 111.101 288.559C111.229 284.411 102.881 281.823 102.881 281.823C102.881 281.823 109.741 279.812 108.221 274.695C106.7 269.577 98.5867 263.911 82.304 267.413Z" fill="#F9AC95"/>
<path d="M84.9 281.481C84.9 281.481 93.7293 283.811 102.881 281.823" stroke="#F37366" stroke-width="2" stroke-miterlimit="10" stroke-linecap="round" stroke-linejoin="round"/>
<path d="M89.868 293.732C89.868 293.732 98.456 295.208 105.864 293.753" stroke="#F37366" stroke-width="2" stroke-miterlimit="10" stroke-linecap="round" stroke-linejoin="round"/>
<path d="M93.94 304.496C93.94 304.496 100.036 306.852 108.161 305.719" stroke="#F37366" stroke-width="2" stroke-miterlimit="10" stroke-linecap="round" stroke-linejoin="round"/>
<path d="M43.0693 321.493C43.0693 321.493 11.428 321.505 1.23733 293.069C-3.87467 278.803 24.9426 301.179 24.9426 301.179C24.9426 301.179 18.4347 268.352 35.168 268.352C52.3653 268.352 43.0693 321.493 43.0693 321.493Z" fill="#F46A7C"/>
<path d="M406.528 272.631C406.528 272.631 405.599 234.269 417.219 229.165C428.839 224.061 420.472 250.897 420.472 250.897C420.472 250.897 444.177 231.033 452.079 240.329C459.98 249.625 436.276 273.325 406.528 272.631Z" fill="#F46A7C"/>
</svg>
